<svg xmlns="http://www.w3.org/2000/svg" xmlns:xlink="http://www.w3.org/1999/xlink" viewBox="0 0 64 64"><defs><style>.cls-1{fill:none;}.cls-2{fill:#788ff8;}.cls-3{fill:#3a58c7;}</style><symbol id="auditor" data-name="auditor" viewBox="0 0 64 64"><rect class="cls-1" width="64" height="64"/><path class="cls-2" d="M53.5,4.5a6,6,0,0,0-6,6,5.9,5.9,0,0,0,.73,2.86L38.4,23.19a7.95,7.95,0,0,0-9.8,0l-7.67-7.67a4.05,4.05,0,1,0-1.41,1.41l7.67,7.67a7.95,7.95,0,0,0,0,9.8L14.52,47.06a6,6,0,1,0,2,4.44,5.9,5.9,0,0,0-.73-2.86L28.6,35.81a7.94,7.94,0,0,0,3.9,1.62V47.59a6,6,0,1,0,2,0V37.43a7.94,7.94,0,0,0,3.9-1.62l7.67,7.67a4.05,4.05,0,1,0,1.41-1.41L39.81,34.4a7.95,7.95,0,0,0,0-9.8l9.67-9.66a6,6,0,1,0,4-10.44Zm-38,9a2,2,0,1,1,2,2A2,2,0,0,1,15.5,13.5Zm-5,42a4,4,0,1,1,4-4A4,4,0,0,1,10.5,55.5Zm27-2a4,4,0,1,1-4-4A4,4,0,0,1,37.5,53.5Zm-4-18a6,6,0,1,1,6-6A6,6,0,0,1,33.5,35.5Zm18,10a2,2,0,1,1-2-2A2,2,0,0,1,51.5,45.5Zm2-31a4,4,0,1,1,4-4A4,4,0,0,1,53.5,14.5Z"/><path class="cls-3" d="M33.5,37.5a8,8,0,1,1,8-8A8,8,0,0,1,33.5,37.5Zm0-14a6,6,0,1,0,6,6A6,6,0,0,0,33.5,23.5Z"/><path class="cls-3" d="M17.5,17.5a4,4,0,1,1,4-4A4,4,0,0,1,17.5,17.5Zm0-6a2,2,0,1,0,2,2A2,2,0,0,0,17.5,11.5Z"/><path class="cls-3" d="M49.5,49.5a4,4,0,1,1,4-4A4,4,0,0,1,49.5,49.5Zm0-6a2,2,0,1,0,2,2A2,2,0,0,0,49.5,43.5Z"/><path class="cls-3" d="M53.5,16.5a6,6,0,1,1,6-6A6,6,0,0,1,53.5,16.5Zm0-9.75a3.75,3.75,0,1,0,3.75,3.75A3.75,3.75,0,0,0,53.5,6.75Z"/><path class="cls-3" d="M10.5,57.5a6,6,0,1,1,6-6A6,6,0,0,1,10.5,57.5Zm0-9.75a3.75,3.75,0,1,0,3.75,3.75A3.75,3.75,0,0,0,10.5,47.75Z"/><path class="cls-3" d="M33.5,59.5a6,6,0,1,1,6-6A6,6,0,0,1,33.5,59.5Zm0-9.75a3.75,3.75,0,1,0,3.75,3.75A3.75,3.75,0,0,0,33.5,49.75Z"/></symbol></defs><title>ic_auditor</title><g id="Layer_2" data-name="Layer 2"><g id="Layer_1-2" data-name="Layer 1"><use id="auditor-3" data-name="auditor" width="64" height="64" xlink:href="#auditor"/></g></g></svg>