<svg xmlns="http://www.w3.org/2000/svg" xmlns:xlink="http://www.w3.org/1999/xlink" viewBox="0 0 64 64"><defs><style>.cls-1,.cls-3{fill:none;}.cls-2{fill:#788ff8;}.cls-3{stroke:#3a58c7;stroke-linecap:round;stroke-miterlimit:10;stroke-width:2px;}</style><symbol id="advisor" data-name="advisor" viewBox="0 0 64 64"><rect class="cls-1" width="64" height="64"/><path class="cls-2" d="M24.76,18.83v-3.2h-.89a1.28,1.28,0,0,1-1.28-1.28V3.21a1.28,1.28,0,0,1,1.28-1.28H42.41a1.29,1.29,0,0,1,1.28,1.28V14.46a1.29,1.29,0,0,1-1.28,1.28H30.9l-4.1,4.1A1.24,1.24,0,0,1,24.76,18.83Zm.38-5.63H26a1.28,1.28,0,0,1,1.28,1.28v1.4l2.3-2.3a1.17,1.17,0,0,1,.9-.38H41.27V4.49H25.14V13.2Z"/><circle class="cls-3" cx="14.86" cy="23.52" r="5.88"/><path class="cls-3" d="M24.73,34.09H5A1.89,1.89,0,0,0,3.1,36v12.7A1.89,1.89,0,0,0,5,50.55H7.81v8.57A1.88,1.88,0,0,0,9.69,61H20a1.88,1.88,0,0,0,1.88-1.88V50.55h2.82a1.88,1.88,0,0,0,1.88-1.88V36A1.88,1.88,0,0,0,24.73,34.09Z"/><circle class="cls-3" cx="48.86" cy="23.52" r="5.88"/><path class="cls-3" d="M58.73,34.09H39A1.89,1.89,0,0,0,37.1,36v12.7A1.89,1.89,0,0,0,39,50.55h2.82v8.57A1.88,1.88,0,0,0,43.69,61H54a1.88,1.88,0,0,0,1.88-1.88V50.55h2.82a1.88,1.88,0,0,0,1.88-1.88V36A1.88,1.88,0,0,0,58.73,34.09Z"/></symbol></defs><title>ic_advisor</title><g id="Layer_2" data-name="Layer 2"><g id="Layer_1-2" data-name="Layer 1"><use id="advisor-3" data-name="advisor" width="64" height="64" xlink:href="#advisor"/></g></g></svg>