<svg xmlns="http://www.w3.org/2000/svg" viewBox="0 0 9 18"><defs><style>.cls-1{fill:#fff;}</style></defs><title>ic_cellphone</title><g id="Layer_2" data-name="Layer 2"><g id="assets"><path class="cls-1" d="M8.67.33A1.07,1.07,0,0,0,7.88,0H1.12A1.07,1.07,0,0,0,.33.33,1.07,1.07,0,0,0,0,1.12V16.88a1.07,1.07,0,0,0,.33.79,1.07,1.07,0,0,0,.79.33H7.88A1.13,1.13,0,0,0,9,16.88V1.12A1.07,1.07,0,0,0,8.67.33ZM3.94,1.5H5.06a.17.17,0,0,1,.19.19.17.17,0,0,1-.19.19H3.94a.17.17,0,0,1-.19-.19A.17.17,0,0,1,3.94,1.5Zm-.75,0a.17.17,0,0,1,.19.19.17.17,0,0,1-.19.19A.17.17,0,0,1,3,1.69.17.17,0,0,1,3.19,1.5ZM4.5,17.25a.66.66,0,0,1-.75-.75.66.66,0,0,1,.75-.75.66.66,0,0,1,.75.75A.66.66,0,0,1,4.5,17.25ZM8.25,15H.75V3h7.5Z"/></g></g></svg>