<svg xmlns="http://www.w3.org/2000/svg" xmlns:xlink="http://www.w3.org/1999/xlink" viewBox="0 0 64 64"><defs><style>.cls-1,.cls-2,.cls-3{fill:none;}.cls-1{stroke:gray;}.cls-1,.cls-2{stroke-linecap:round;stroke-linejoin:round;stroke-width:2px;}.cls-2{stroke:#b3b3b3;}</style><symbol id="fund" data-name="fund" viewBox="0 0 64 64"><path class="cls-1" d="M38,18S56,32,56,52A10,10,0,0,1,46,62H18A10,10,0,0,1,8,52C8,32,26,18,26,18S14,7.6,14,4s8,2,12,2c5.7,0,6.3-4,10-4s4.1,4.1,10,4.1C48.3,6.1,44,12.1,38,18Z"/><path class="cls-1" d="M26,18H39a19.21,19.21,0,0,0,13-4m-2,8a6.51,6.51,0,0,1,6,3"/><path class="cls-2" d="M37.9,34A6,6,0,0,0,32,29c-3.3,0-6,2.2-6,5.5s3,4.8,6,5.5m-6,5a6,6,0,0,0,6,6c3.3,0,6-2.2,6-5.5s-3-4.8-6-5.5m0-11V26m0,28V51"/><rect class="cls-3" width="64" height="64"/></symbol></defs><title>ic_fund</title><g id="Layer_2" data-name="Layer 2"><g id="Layer_1-2" data-name="Layer 1"><use id="fund-3" data-name="fund" width="64" height="64" xlink:href="#fund"/></g></g></svg>