<svg xmlns="http://www.w3.org/2000/svg" xmlns:xlink="http://www.w3.org/1999/xlink" viewBox="0 0 64 64"><defs><style>.cls-1{fill:gray;}.cls-2{fill:#b3b3b3;}.cls-3{fill:none;}</style><symbol id="knowledge" data-name="knowledge" viewBox="0 0 64 64"><path class="cls-1" d="M57.4,24.26A22.35,22.35,0,0,0,35.43,2h-.28a22.42,22.42,0,0,0-21.8,17.81,21.71,21.71,0,0,0-.2,7.84L6.6,39.36l7.25,2.07V53.29h9.68V62h1.94V51.35H15.79V40l-6.31-1.8L15.17,28l-.06-.34a19.89,19.89,0,0,1,.13-7.46,20.31,20.31,0,0,1,40.22,4.05v3.53A23.56,23.56,0,0,1,45.25,47.21l-.42.29V62h1.94V48.51A25.51,25.51,0,0,0,57.4,27.79Z"/><path class="cls-2" d="M36.12,33.58a5.69,5.69,0,0,0,1.93.35,5.81,5.81,0,0,0,4.89-2.71A5.73,5.73,0,0,0,45.8,32a5.81,5.81,0,0,0,5.81-5.81,5.62,5.62,0,0,0-.41-2.08,5.68,5.68,0,0,0,1.37-3.73,5.8,5.8,0,0,0-4.84-5.72v-.08A6.78,6.78,0,0,0,41,7.79a6.67,6.67,0,0,0-2.82.62,5.75,5.75,0,0,0-8.61.77,5.58,5.58,0,0,0-2.13-.42,5.81,5.81,0,0,0-5.8,5.81c0,.11,0,.22,0,.33a5.77,5.77,0,0,0-2.73,8.92,5.17,5.17,0,0,0-.19,1.39A5.81,5.81,0,0,0,24.5,31a5.57,5.57,0,0,0,2.08-.4,5.72,5.72,0,0,0,6.58.6,5.89,5.89,0,0,0,1,1.2Zm6-5.48-.49,1.34a3.84,3.84,0,0,1-7,.55,5.8,5.8,0,0,0-4.37-9.62v1.94A3.86,3.86,0,0,1,33,28.94l-.13.11a3.83,3.83,0,0,1-5.4-.24L27,28.26l-.66.35a3.77,3.77,0,0,1-1.81.48,3.88,3.88,0,0,1-3.87-3.88,3.79,3.79,0,0,1,.24-1.28l.19-.54L20.67,23a3.85,3.85,0,0,1,1.49-6.2l.25-.07c.15,0,.29-.09.45-.12h0a3.39,3.39,0,0,1,.64-.07,3.86,3.86,0,0,1,3.1,1.55l1.55-1.17a5.78,5.78,0,0,0-4.65-2.31,3.88,3.88,0,0,1,3.87-3.88,3.76,3.76,0,0,1,2,.57l.47.28a.07.07,0,0,1,0,.05,3.86,3.86,0,0,1,1.43,3h1.93a5.7,5.7,0,0,0-2-4.35,3.8,3.8,0,0,1,6,0l.54.66.72-.44A4.78,4.78,0,0,1,41,9.73a4.84,4.84,0,0,1,4.84,4.84s0,.06,0,.09A5.8,5.8,0,0,0,41,20.37h1.93a3.87,3.87,0,0,1,3.8-3.86h.13a3.88,3.88,0,0,1,3.82,3.87,3.83,3.83,0,0,1-1.25,2.83l-.55.51.35.66a3.77,3.77,0,0,1,.48,1.81,3.86,3.86,0,0,1-6.44,2.88Z"/><rect class="cls-3" width="64" height="64"/></symbol></defs><title>ic_knowledge</title><g id="Layer_2" data-name="Layer 2"><g id="Layer_1-2" data-name="Layer 1"><use id="knowledge-3" data-name="knowledge" width="64" height="64" xlink:href="#knowledge"/></g></g></svg>