<svg xmlns="http://www.w3.org/2000/svg" xmlns:xlink="http://www.w3.org/1999/xlink" viewBox="0 0 64 64"><defs><style>.cls-1{fill:none;}.cls-2{fill:#3a58c7;}.cls-3{fill:#788ff8;}</style><symbol id="legal" data-name="legal" viewBox="0 0 64 64"><rect class="cls-1" width="64" height="64"/><path class="cls-2" d="M47,13.15v0s0-.07,0-.1h0a.36.36,0,0,0,0-.1,0,0,0,0,1,0,0l0-.08v0a.47.47,0,0,0,0-.1h0a.41.41,0,0,0-.05-.09l0,0-.05-.07,0,0-.08-.08-10-10-.08-.08,0,0-.07,0,0,0-.09-.05h0l-.1,0h0l-.08,0h0L36,2H3.25A1.25,1.25,0,0,0,2,3.25v57.5A1.25,1.25,0,0,0,3.25,62h42.5A1.25,1.25,0,0,0,47,60.75V13.15ZM37,6.27,42.73,12H37ZM44.5,59.5H4.5V4.5h30v8.75a1.25,1.25,0,0,0,1.25,1.25H44.5v45Z"/><path class="cls-3" d="M62,15.75a5,5,0,0,0-10,0V49.5h1.55L52,54.92l5,3.33,5-3.33L60.45,49.5H62Zm-5,39.5-2.09-1.4,1.24-4.35h1.7l1.24,4.35ZM59.5,47h-5V15.75a2.5,2.5,0,0,1,5,0V47Z"/><path class="cls-3" d="M38.25,34.5H10.77a1.25,1.25,0,1,0,0,2.5H38.25a1.25,1.25,0,0,0,0-2.5Z"/><path class="cls-3" d="M38.25,42H10.77a1.25,1.25,0,1,0,0,2.5H38.25a1.25,1.25,0,0,0,0-2.5Z"/><path class="cls-3" d="M25.75,49.5h-15a1.25,1.25,0,1,0,0,2.5h15a1.25,1.25,0,0,0,0-2.5Z"/><path class="cls-3" d="M25.77,12H19.51V10.67a1.25,1.25,0,1,0-2.5,0V12H10.77a1.25,1.25,0,0,0,0,2.5H17v10H13.26a1.25,1.25,0,1,0,0,2.5h10a1.25,1.25,0,1,0,0-2.5H19.51v-10h6.26a1.25,1.25,0,0,0,0-2.5Z"/><path class="cls-3" d="M11.92,17H9.42a1.25,1.25,0,0,0,0,2.5h2.5a1.25,1.25,0,1,0,0-2.5Z"/><path class="cls-3" d="M27,17H24.5a1.25,1.25,0,0,0,0,2.5H27A1.25,1.25,0,0,0,27,17Z"/></symbol></defs><title>ic_legal</title><g id="Layer_2" data-name="Layer 2"><g id="Layer_1-2" data-name="Layer 1"><use id="legal-3" data-name="legal" width="64" height="64" xlink:href="#legal"/></g></g></svg>