<svg xmlns="http://www.w3.org/2000/svg" viewBox="0 0 18 18"><defs><style>.cls-1{fill:#fff;}</style></defs><title>ic_linkedin</title><g id="Layer_2" data-name="Layer 2"><g id="Layer_1-2" data-name="Layer 1"><path class="cls-1" d="M17.58.4a1.43,1.43,0,0,0-1-.4h-15A1.55,1.55,0,0,0,.45.4a1.28,1.28,0,0,0-.45,1v15a1.49,1.49,0,0,0,.47,1.08A1.49,1.49,0,0,0,1.55,18h15a1.35,1.35,0,0,0,1-.47A1.56,1.56,0,0,0,18,16.45v-15A1.32,1.32,0,0,0,17.58.4ZM5.58,15H3V7H5.58ZM5.37,5.37a1.4,1.4,0,0,1-1,.4,1.3,1.3,0,0,1-1-.38,1.39,1.39,0,0,1-.38-1A1.37,1.37,0,0,1,4.41,3a1.27,1.27,0,0,1,1,.4,1.41,1.41,0,0,1,.38,1A1.35,1.35,0,0,1,5.37,5.37ZM15,15H12.42V10.59c0-1.15-.44-1.73-1.31-1.73A1.32,1.32,0,0,0,9.8,9.8a1.43,1.43,0,0,0-.1.65V15H7.12V7H9.7V8.11A2.79,2.79,0,0,1,12.05,6.8a2.75,2.75,0,0,1,2.13.89A3.72,3.72,0,0,1,15,10.31Z"/></g></g></svg>