<svg xmlns="http://www.w3.org/2000/svg" viewBox="0 0 11.57 18"><defs><style>.cls-1{fill:#fff;}</style></defs><title>ic_location</title><g id="Layer_2" data-name="Layer 2"><g id="assets"><path class="cls-1" d="M5.79,3.21A2.47,2.47,0,0,0,4,4,2.5,2.5,0,0,0,4,7.59a2.5,2.5,0,0,0,3.61,0A2.5,2.5,0,0,0,7.59,4,2.47,2.47,0,0,0,5.79,3.21ZM7.13,7.13a1.82,1.82,0,0,1-1.34.54,1.92,1.92,0,0,1-1.37-.52A1.91,1.91,0,0,1,3.9,5.79,1.85,1.85,0,0,1,5.79,3.9,1.85,1.85,0,0,1,7.67,5.79,1.82,1.82,0,0,1,7.13,7.13ZM9.88,1.69A5.55,5.55,0,0,0,5.79,0a5.55,5.55,0,0,0-4.1,1.69A5.55,5.55,0,0,0,0,5.79a12.94,12.94,0,0,0,1.61,5.28,39.36,39.36,0,0,0,2.57,4.66c.64.92,1.18,1.68,1.61,2.27L7.23,16a34.17,34.17,0,0,0,2.89-5.1,12.45,12.45,0,0,0,1.45-5.06A5.55,5.55,0,0,0,9.88,1.69ZM8.12,13.26C7.23,14.79,6.46,16,5.79,16.92a41.25,41.25,0,0,1-2.33-3.66Q.64,8.43.64,5.79A5,5,0,0,1,2.13,2.13,5,5,0,0,1,5.79.64,5,5,0,0,1,9.44,2.13a5,5,0,0,1,1.49,3.66Q10.93,8.43,8.12,13.26Z"/></g></g></svg>