<svg xmlns="http://www.w3.org/2000/svg" xmlns:xlink="http://www.w3.org/1999/xlink" viewBox="0 0 64 64"><defs><style>.cls-1,.cls-2,.cls-3{fill:none;}.cls-1{stroke:#3a58c7;}.cls-1,.cls-2{stroke-linecap:round;stroke-miterlimit:10;stroke-width:2px;}.cls-2{stroke:#788ff8;}</style><symbol id="manager" data-name="manager" viewBox="0 0 64 64"><circle class="cls-1" cx="26" cy="16" r="5"/><path class="cls-1" d="M34.4,25H17.6A1.6,1.6,0,0,0,16,26.6V37.4A1.6,1.6,0,0,0,17.6,39H20V51.4A1.6,1.6,0,0,0,21.6,53h8.8A1.6,1.6,0,0,0,32,51.4V39h2.4A1.6,1.6,0,0,0,36,37.4V26.6A1.6,1.6,0,0,0,34.4,25Z"/><polyline class="cls-2" points="26 25.52 23 33.52 26 36.52 29 33.52 26 25.52"/><polyline class="cls-2" points="45 38.52 42 38.52 42 52.52 48 52.52 48 38.52 45 38.52 45 33.52"/><rect class="cls-3" width="64" height="64"/></symbol></defs><title>ic_manager</title><g id="Layer_2" data-name="Layer 2"><g id="Layer_1-2" data-name="Layer 1"><use id="manager-3" data-name="manager" width="64" height="64" xlink:href="#manager"/></g></g></svg>