<svg xmlns="http://www.w3.org/2000/svg" xmlns:xlink="http://www.w3.org/1999/xlink" viewBox="0 0 64 64"><defs><style>.cls-1{fill:gray;}.cls-2{fill:#b3b3b3;}.cls-3{fill:none;}</style><symbol id="marketing" data-name="marketing" viewBox="0 0 64 64"><path class="cls-1" d="M54.68,30.37h-21v-21a1.52,1.52,0,0,0-1.53-1.53A24.11,24.11,0,1,0,56.21,31.9,1.54,1.54,0,0,0,54.68,30.37ZM32.11,52.94a21,21,0,0,1-1.53-42v21a1.52,1.52,0,0,0,1.53,1.53h21A21.06,21.06,0,0,1,32.11,52.94Z"/><path class="cls-2" d="M62,26A24.09,24.09,0,0,0,37.89,2a1.52,1.52,0,0,0-1.53,1.53V26.1a1.52,1.52,0,0,0,1.53,1.53H60.46A1.52,1.52,0,0,0,62,26.1ZM39.42,24.58V5.13A21.06,21.06,0,0,1,58.88,24.58Z"/><rect class="cls-3" width="64" height="64"/></symbol></defs><title>ic_marketing</title><g id="Layer_2" data-name="Layer 2"><g id="Layer_1-2" data-name="Layer 1"><use id="marketing-3" data-name="marketing" width="64" height="64" xlink:href="#marketing"/></g></g></svg>