<svg xmlns="http://www.w3.org/2000/svg" xmlns:xlink="http://www.w3.org/1999/xlink" viewBox="0 0 64 64"><defs><style>.cls-1,.cls-2,.cls-3{fill:none;}.cls-1{stroke:gray;}.cls-1,.cls-2{stroke-linecap:round;stroke-miterlimit:10;stroke-width:2px;}.cls-2{stroke:#b3b3b3;}</style><symbol id="recruit" data-name="recruit" viewBox="0 0 64 64"><circle class="cls-1" cx="32" cy="23" r="5"/><path class="cls-1" d="M40.4,32H23.6A1.6,1.6,0,0,0,22,33.6V44.4A1.6,1.6,0,0,0,23.6,46H26V58.4A1.6,1.6,0,0,0,27.6,60h8.8A1.6,1.6,0,0,0,38,58.4V46h2.4A1.6,1.6,0,0,0,42,44.4V33.6A1.6,1.6,0,0,0,40.4,32Z"/><circle class="cls-2" cx="10" cy="8" r="4"/><path class="cls-2" d="M16.4,16H3.6A1.6,1.6,0,0,0,2,17.6H2v8.8A1.6,1.6,0,0,0,3.6,28H6V38.4A1.6,1.6,0,0,0,7.6,40h4.8A1.6,1.6,0,0,0,14,38.4V28h2.4A1.6,1.6,0,0,0,18,26.4h0V17.6A1.6,1.6,0,0,0,16.4,16Z"/><circle class="cls-2" cx="54" cy="8" r="4"/><path class="cls-2" d="M60.4,16H47.6A1.6,1.6,0,0,0,46,17.6v8.8A1.6,1.6,0,0,0,47.6,28H50V38.4A1.6,1.6,0,0,0,51.6,40h4.8A1.6,1.6,0,0,0,58,38.4V28h2.4A1.6,1.6,0,0,0,62,26.4V17.6A1.6,1.6,0,0,0,60.4,16Z"/><rect class="cls-3" width="64" height="64"/></symbol></defs><title>ic_recruit</title><g id="Layer_2" data-name="Layer 2"><g id="Layer_1-2" data-name="Layer 1"><use id="recruit-3" data-name="recruit" width="64" height="64" xlink:href="#recruit"/></g></g></svg>