<svg xmlns="http://www.w3.org/2000/svg" viewBox="0 0 22.13 18"><defs><style>.cls-1{fill:#fff;}</style></defs><title>ic_tweeter</title><g id="Layer_2" data-name="Layer 2"><g id="Layer_1-2" data-name="Layer 1"><path class="cls-1" d="M19.5,2.86a4.19,4.19,0,0,0,2-2.53,8.38,8.38,0,0,1-2.91,1.12A4.33,4.33,0,0,0,15.33,0a4.47,4.47,0,0,0-4.55,4.55,3.71,3.71,0,0,0,.1,1A12.28,12.28,0,0,1,1.55.84,4.48,4.48,0,0,0,.94,3.09a4.26,4.26,0,0,0,2,3.8A4.35,4.35,0,0,1,.89,6.33v0A4.29,4.29,0,0,0,2,9.26a4.57,4.57,0,0,0,2.6,1.57A5.62,5.62,0,0,1,3.33,11a6.35,6.35,0,0,1-.85-.1,4.36,4.36,0,0,0,1.6,2.23,4.52,4.52,0,0,0,2.62.91,8.76,8.76,0,0,1-5.62,2A10.31,10.31,0,0,1,0,15.94,12.56,12.56,0,0,0,6.94,18a11.94,11.94,0,0,0,9.4-4,13.16,13.16,0,0,0,3.54-8.93V4.5a9,9,0,0,0,2.24-2.34A7.72,7.72,0,0,1,19.5,2.86Z"/></g></g></svg>