<svg xmlns="http://www.w3.org/2000/svg" viewBox="0 0 18 15.76"><defs><style>.cls-1{fill:#fff;}</style></defs><title>ic_telegram</title><g id="Layer_2" data-name="Layer 2"><g id="assets"><path class="cls-1" d="M14.19,3.29a.5.5,0,0,0-.65-.12L6.14,7.73A1.1,1.1,0,0,0,5.66,9l.8,2.81a.55.55,0,0,0,.53.4H7a.54.54,0,0,0,.5-.48l.21-1.54A.94.94,0,0,1,8,9.62l6.11-5.68A.48.48,0,0,0,14.19,3.29ZM7.53,9.09a1.69,1.69,0,0,0-.5,1l-.1.74-.58-2a.38.38,0,0,1,.17-.43L11.94,5ZM17.71.2a.82.82,0,0,0-.84-.14L.53,6.36A.84.84,0,0,0,0,7.14a.82.82,0,0,0,.54.77L4.36,9.33l1.49,4.79a.8.8,0,0,0,.55.55.83.83,0,0,0,.76-.15l2.22-1.81a.3.3,0,0,1,.37,0l4,2.91a.88.88,0,0,0,.49.15.79.79,0,0,0,.3,0,.83.83,0,0,0,.51-.61L18,1A.82.82,0,0,0,17.71.2ZM14.35,15a.11.11,0,0,1-.07.08.11.11,0,0,1-.11,0l-4-2.91a1,1,0,0,0-.6-.2,1,1,0,0,0-.64.23L6.71,14a.1.1,0,0,1-.11,0s0,0-.07-.07L5,9a.36.36,0,0,0-.22-.23l-4-1.48a.1.1,0,0,1-.07-.11A.1.1,0,0,1,.79,7L17.13.72h0a.12.12,0,0,1,.11,0,.11.11,0,0,1,0,.11Zm.32-5.56a.37.37,0,0,0-.43.27l-.82,3.8a.36.36,0,0,0,.27.43h.08a.37.37,0,0,0,.35-.29l.82-3.8A.35.35,0,0,0,14.67,9.4ZM15,7.75A.36.36,0,0,0,14.6,8l0,.25a.36.36,0,0,0,.27.43h.08a.37.37,0,0,0,.35-.29l.05-.25A.35.35,0,0,0,15,7.75Z"/></g></g></svg>