<svg xmlns="http://www.w3.org/2000/svg" xmlns:xlink="http://www.w3.org/1999/xlink" viewBox="0 0 131.33 101.12"><defs><style>.cls-1{fill:url(#linear-gradient);}.cls-2,.cls-3,.cls-4,.cls-5{opacity:0.8;}.cls-2{fill:url(#linear-gradient-2);}.cls-3{fill:url(#linear-gradient-3);}.cls-4{fill:url(#linear-gradient-4);}.cls-5{fill:url(#linear-gradient-5);}.cls-6{fill:#fff;}.cls-7{fill:url(#linear-gradient-6);}.cls-8{fill:url(#linear-gradient-7);}</style><linearGradient id="linear-gradient" x1="3059.38" y1="20251.44" x2="3059.38" y2="20164.24" gradientTransform="translate(19859.02 5232.43) rotate(113.26)" gradientUnits="userSpaceOnUse"><stop offset="0" stop-color="#db0c81"/><stop offset="1" stop-color="#ee3d23"/></linearGradient><linearGradient id="linear-gradient-2" x1="-1180.58" y1="17147.75" x2="-1180.58" y2="17094.62" gradientTransform="translate(17196.89 1223.56) rotate(90)" gradientUnits="userSpaceOnUse"><stop offset="0" stop-color="#f04e23"/><stop offset="0.39" stop-color="#f37021"/><stop offset="1" stop-color="#fbb040"/></linearGradient><linearGradient id="linear-gradient-3" x1="-1193.97" y1="17143.8" x2="-1193.97" y2="17119.08" xlink:href="#linear-gradient-2"/><linearGradient id="linear-gradient-4" x1="-1196.03" y1="17173.57" x2="-1196.03" y2="17130.85" xlink:href="#linear-gradient-2"/><linearGradient id="linear-gradient-5" x1="-1186.97" y1="17196.89" x2="-1186.97" y2="17137.82" xlink:href="#linear-gradient-2"/><linearGradient id="linear-gradient-6" x1="-1173.47" y1="17156.98" x2="-1173.47" y2="17135.65" gradientTransform="translate(17196.89 1223.56) rotate(90)" xlink:href="#linear-gradient"/><linearGradient id="linear-gradient-7" x1="-1142.62" y1="17158.09" x2="-1142.62" y2="17137.41" xlink:href="#linear-gradient-2"/><symbol id="teamlogo1" data-name="teamlogo1" viewBox="0 0 131.32 101.12"><path class="cls-1" d="M65.48,84.44l.19.06c11.58,3.47,19.51-.66,31-7,5.2-2.87,12.34-7.11,17.91-9.5A25.12,25.12,0,0,1,125,65.59a12.76,12.76,0,0,1,2.15.26h0a9.87,9.87,0,0,1,4.16,2,26.54,26.54,0,0,0-27-24.82c-7.78.15-15.08,3.69-21.76,7.67-3.51,2.1-7,4.35-10.51,6.39a59.57,59.57,0,0,1-10,4.7l-.54.18C54.36,64.31,46,64.46,39.66,60.23A40.78,40.78,0,0,0,54.89,79.34,39.51,39.51,0,0,0,65.48,84.44Z"/><path class="cls-2" d="M85.38,59.39a31.3,31.3,0,0,0,2.79-4.15c.44-.78.84-1.55,1.22-2.32l.14-.28v0a44,44,0,0,0,2.26-5.72c.06-.18.11-.36.17-.53,2.8-9,3.66-17,10.3-27.81a41.22,41.22,0,0,0-13.8,2.81h0v0c-7.63,3-14.22,8.32-17.69,15.67-1.63,3.44-3.36,10.29-4.71,13.85-.18.46-.37.92-.58,1.37a19.08,19.08,0,0,1-6.07,7.56,21.22,21.22,0,0,1-7.09,3.76,8.58,8.58,0,0,1-3.2.17c6.12,2.24,12.56,3.95,19.06,3.63S81.3,64.47,85.38,59.39ZM69.94,47.94l-1.42,1.44Z"/><path class="cls-3" d="M77.55,33.53a25.51,25.51,0,0,0-1.11-4.1c-.25-.71-.52-1.4-.8-2.07,0-.08-.07-.17-.11-.25v0a37.33,37.33,0,0,0-2.41-4.63c-.08-.14-.17-.27-.25-.4C68.62,15.24,64,10.25,60.77,0A34.63,34.63,0,0,0,54.9,10.41h0v0c-2.32,6.55-2.58,13.73.2,20,1.31,3,4.73,7.87,6.26,10.72.2.37.39.75.56,1.14a16.1,16.1,0,0,1,1.47,8.08A18.13,18.13,0,0,1,61.86,57a7.34,7.34,0,0,1-1.67,2.15C65,56.5,69.7,53.32,73.11,49S78.54,39,77.55,33.53ZM61.63,37.06c0,.56.09,1.13.13,1.71C61.72,38.19,61.68,37.62,61.63,37.06Z"/><path class="cls-4" d="M58.54,18.68a27.52,27.52,0,0,0-3.62-2.22c-.68-.34-1.34-.66-2-1l-.25-.11h0a38.52,38.52,0,0,0-4.93-1.71l-.45-.12c-7.77-2.05-14.55-2.5-23.94-7.74a34.94,34.94,0,0,0,2.88,11.6h0C29,23.78,33.75,29.18,40.11,31.86c3,1.25,8.84,2.47,11.9,3.49.4.14.8.28,1.19.44a16.15,16.15,0,0,1,6.62,4.88,18.09,18.09,0,0,1,3.44,5.87,7.22,7.22,0,0,1,.27,2.71C65.2,44,66.42,38.47,65.92,33S63,22,58.54,18.68Zm-9.15,13.5c.42.37.84.76,1.26,1.15C50.23,32.94,49.81,32.55,49.39,32.18Z"/><path class="cls-5" d="M32.23,24.13a26.64,26.64,0,0,0-4,1.41c-.69.3-1.36.62-2,.95l-.25.12,0,0a35.35,35.35,0,0,0-4.44,2.74l-.38.27C14.63,34.36,10,39.34,0,43.3a34.79,34.79,0,0,0,10.8,5.1h0c6.71,1.84,13.89,1.58,20-1.65,2.86-1.52,7.51-5.29,10.24-7,.36-.22.72-.44,1.09-.64a16.2,16.2,0,0,1,8-2.05,18.14,18.14,0,0,1,6.73,1.05,7.19,7.19,0,0,1,2.26,1.5c-3-4.62-6.52-9.05-11.1-12.14S37.58,22.75,32.23,24.13ZM36.9,39.76l1.69-.25Z"/><path class="cls-6" d="M51,63.49A13.44,13.44,0,1,1,64.45,50.05,13.43,13.43,0,0,1,51,63.49Z"/><path class="cls-7" d="M50.57,60.76A10.67,10.67,0,1,1,61.24,50.09,10.67,10.67,0,0,1,50.57,60.76Z"/><path class="cls-8" d="M38.83,60.76A29.61,29.61,0,0,0,54.35,81.12c13.69,7.23-3.9,17.74-8.41,19.71s8.12-6.24,0-17.08A36.85,36.85,0,0,1,38.83,60.76Z"/></symbol></defs><title>img_team1</title><g id="Layer_2" data-name="Layer 2"><g id="Layer_1-2" data-name="Layer 1"><use width="131.33" height="101.12" xlink:href="#teamlogo1"/></g></g></svg>