<svg xmlns="http://www.w3.org/2000/svg" viewBox="0 0 851.55 394"><defs><style>.cls-1{fill:#788ff8;}.cls-11,.cls-2{fill:#fff;}.cls-3{fill:#e56f3d;}.cls-4{fill:#f7c945;}.cls-5{fill:#bbc7fb;}.cls-6{fill:#9aabfa;}.cls-7{fill:#2b2b38;}.cls-8{fill:#f0f1f1;}.cls-9{fill:#aab9fa;}.cls-10{fill:#e6e6e7;opacity:0.3;}.cls-11{opacity:0.5;}</style></defs><title>img_rocket_launch</title><g id="Layer_2" data-name="Layer 2"><g id="Layer_1-2" data-name="Layer 1"><path class="cls-1" d="M732.49,297a78.81,78.81,0,0,0-14.22-1.51A84.25,84.25,0,0,0,562.4,232a72.58,72.58,0,0,0-107,11.57A82,82,0,0,0,381.21,389H794.63A79,79,0,0,0,732.49,297Z"/><path class="cls-1" d="M573.23,352.7a61.65,61.65,0,0,0-10.62-60.59,42.33,42.33,0,0,0-8.74-69.27,62,62,0,1,0-104.58-62.36,63,63,0,0,0-2.85,10.86,66.12,66.12,0,0,0-67.71,113.4,57,57,0,0,0-3.68,84.37,64.36,64.36,0,0,0-7.7,19.89H537.93A61.52,61.52,0,0,0,573.23,352.7Z"/><path class="cls-1" d="M327.56,202.79a56.92,56.92,0,0,0,7.38-15.51c8.26-27.2-4.59-55.19-28.72-62.51-21.83-6.63-45.4,6-55.8,28.57-20.3-.64-40,14.11-46.93,36.83-5.6,18.48-1.22,37.31,9.88,49.49-9.88,3.76-18.28,12.53-21.85,24.3-5.75,19,3.21,38.46,20,43.56a28.24,28.24,0,0,0,4.47.94c0,.12-.09.25-.13.38-6.2,20.4,3.45,41.39,21.54,46.87s37.78-6.59,44-27a42.84,42.84,0,0,0,1.83-11c.47.15.92.31,1.38.45C313.53,326.93,345,307.6,354.91,275,364,245.13,351.83,214.52,327.56,202.79Z"/><polygon class="cls-1" points="396.67 127.19 380.08 236.01 431.5 232.41 411.93 126.05 396.67 127.19"/><polygon class="cls-2" points="398.72 141.15 385.85 225.55 425.73 222.76 410.56 140.26 398.72 141.15"/><path class="cls-2" d="M798,266.07a99.11,99.11,0,0,0-120.31,23A85.39,85.39,0,0,0,553,267.28a98.07,98.07,0,0,0-15.14-9.73A96.43,96.43,0,0,0,411.56,394H843.15A99.11,99.11,0,0,0,798,266.07Z"/><path class="cls-2" d="M578.4,341.09a44.49,44.49,0,0,0-9.19-72.78,65.12,65.12,0,1,0-109.87-65.52,66.75,66.75,0,0,0-3,11.41,67.31,67.31,0,0,0-8.93-4,69.47,69.47,0,0,0-62.2,123.14A59.77,59.77,0,0,0,365.38,394h227A64.84,64.84,0,0,0,578.4,341.09Z"/><path class="cls-2" d="M348.46,373.53A44.92,44.92,0,0,0,346.08,362c.52,0,1,0,1.53-.08,31.68-2.33,55.23-33.18,52.6-68.91-2.42-32.67-25.89-58.09-54.11-60.41a60.17,60.17,0,0,0,1.36-18c-2.19-29.79-25.38-52.36-51.79-50.41-23.91,1.76-42.26,23-43.9,49.11-20.14,7.05-33.9,29-32.07,53.85,1.5,20.24,12.91,37,28.4,44.78-8.26,7.42-13.18,19.2-12.22,32.08,1.52,20.76,17.69,36.49,36.09,35.13a29.66,29.66,0,0,0,4.74-.77c0,.14,0,.28,0,.42A45,45,0,0,0,280.56,394h64.6A44.31,44.31,0,0,0,348.46,373.53Z"/><path class="cls-2" d="M538.89,377.28A96.46,96.46,0,0,0,390.3,298.75c0-.37,0-.74,0-1.11a92.49,92.49,0,0,0-173.61-41.89A63.47,63.47,0,0,0,124.88,306,92.89,92.89,0,0,0,0,394H537.87A97.19,97.19,0,0,0,538.89,377.28Z"/><path class="cls-3" d="M402.83,120.84c-7.22.18-13.38,8.31-13.23,14.08s14.28,27.65,14.28,27.65c4-10,13-22.65,12.87-28.33S410,120.65,402.83,120.84Z"/><path class="cls-4" d="M402.84,121.26c-5.9.14-10.93,6.79-10.82,11.51s11.68,22.59,11.68,22.59c3.26-8.18,10.64-18.51,10.52-23.15S408.73,121.11,402.84,121.26Z"/><path class="cls-2" d="M402.84,121.21c-4.55.11-8.43,5.23-8.34,8.87s9,17.4,9,17.4c2.52-6.3,8.2-14.26,8.11-17.84S407.38,121.09,402.84,121.21Z"/><path class="cls-5" d="M386.75,87.09s-8.88,5.08-13.27,14.08c-5.57,11.43-7.05,28.92-4.88,30s4.79-7.3,9.16-12.23c7.23-8.16,13.47-7.67,13.47-7.67Z"/><path class="cls-6" d="M420.33,87.09s8.89,5.08,13.28,14.08c5.57,11.43,7,28.92,4.87,30s-4.78-7.3-9.16-12.23c-7.23-8.16-13.46-7.67-13.46-7.67Z"/><path class="cls-7" d="M416.57,125.49a181.5,181.5,0,0,0,7.69-51.84c0-22.34-12.9-35-20.71-41.27-7.81,6.26-20.71,18.93-20.71,41.27a182.06,182.06,0,0,0,7.68,51.84Z"/><path class="cls-2" d="M377.33,61.4c0,34.19,8.47,54.5,9.73,58.4h33c1.26-3.9,9.73-24.21,9.73-58.4,0-15.08-4.64-29.27-10.47-40.44H387.8C382,32.13,377.33,46.32,377.33,61.4Z"/><path class="cls-5" d="M403.55,0c-4.62,3.7-10.64,11.17-15.75,21h31.5C414.19,11.17,408.17,3.7,403.55,0Z"/><path class="cls-8" d="M419.3,21H403.55V119.8H420c1.26-3.9,9.73-24.21,9.73-58.4C429.77,46.32,425.13,32.13,419.3,21Z"/><path class="cls-9" d="M403.55,35.76a11.3,11.3,0,1,0,11.29,11.3A11.3,11.3,0,0,0,403.55,35.76Z"/><path class="cls-7" d="M415.2,53.72a13.39,13.39,0,1,0-18.26,5.05A13.38,13.38,0,0,0,415.2,53.72Zm-2.57-1.45A10.44,10.44,0,1,1,408.69,38,10.45,10.45,0,0,1,412.63,52.27Z"/><path class="cls-10" d="M413.47,52.74A11.4,11.4,0,1,0,397.93,57,11.4,11.4,0,0,0,413.47,52.74Z"/><path class="cls-11" d="M394.76,50.29A9.29,9.29,0,0,1,409.12,39.9a49.79,49.79,0,0,0-8.23,4.23A39.35,39.35,0,0,0,394.76,50.29Z"/><path class="cls-5" d="M403.62,91.12h0c-2.22,0-3.7,3.45-3.7,8.07s.49,32.12,3.7,32.12h0c3.21,0,3.71-27.5,3.71-32.12S405.84,91.12,403.62,91.12Z"/><path class="cls-6" d="M403.55,21H419.3c-5.11-9.79-11.13-17.26-15.75-21h0Z"/><path class="cls-6" d="M403.62,91.12h0v40.19h0c3.21,0,3.71-27.5,3.71-32.12S405.84,91.12,403.62,91.12Z"/></g></g></svg>