<svg xmlns="http://www.w3.org/2000/svg" xmlns:xlink="http://www.w3.org/1999/xlink" viewBox="0 0 132.81 107.9"><defs><style>.cls-1{fill:#323232;}.cls-2{opacity:0.3;}.cls-3{fill:#a6a8ab;opacity:0;mix-blend-mode:multiply;}.cls-4{fill:#a5a7aa;opacity:0.01;}.cls-5{fill:#a3a5a8;opacity:0.02;}.cls-6{fill:#a2a4a7;opacity:0.03;}.cls-7{fill:#a1a3a5;opacity:0.04;}.cls-8{fill:#a0a1a4;opacity:0.05;}.cls-9{fill:#9ea0a3;opacity:0.06;}.cls-10{fill:#9d9fa1;opacity:0.07;}.cls-11{fill:#9c9da0;opacity:0.08;}.cls-12{fill:#9a9c9f;opacity:0.09;}.cls-13{fill:#999a9d;opacity:0.1;}.cls-14{fill:#98999c;opacity:0.11;}.cls-15{fill:#96989a;opacity:0.12;}.cls-16{fill:#959699;opacity:0.13;}.cls-17{fill:#949598;opacity:0.14;}.cls-18{fill:#939496;opacity:0.15;}.cls-19{fill:#919295;opacity:0.16;}.cls-20{fill:#909194;opacity:0.17;}.cls-21{fill:#8f9092;opacity:0.18;}.cls-22{fill:#8d8e91;opacity:0.19;}.cls-23{fill:#8c8d8f;opacity:0.2;}.cls-24{fill:#8b8c8e;opacity:0.21;}.cls-25{fill:#898a8d;opacity:0.22;}.cls-26{fill:#88898b;opacity:0.23;}.cls-27{fill:#87878a;opacity:0.24;}.cls-28{fill:#868689;opacity:0.25;}.cls-29{fill:#848587;opacity:0.26;}.cls-30{fill:#838386;opacity:0.27;}.cls-31{fill:#828284;opacity:0.28;}.cls-32{fill:#808183;opacity:0.29;}.cls-33{fill:#7f7f82;opacity:0.3;}.cls-34{fill:#7e7e80;opacity:0.31;}.cls-35{fill:#7c7d7f;opacity:0.32;}.cls-36{fill:#7b7b7e;opacity:0.33;}.cls-37{fill:#7a7a7c;opacity:0.34;}.cls-38{fill:#79797b;opacity:0.35;}.cls-39{fill:#777779;opacity:0.36;}.cls-40{fill:#767678;opacity:0.37;}.cls-41{fill:#757477;opacity:0.38;}.cls-42{fill:#737375;opacity:0.39;}.cls-43{fill:#727274;opacity:0.4;}.cls-44{fill:#717073;opacity:0.41;}.cls-45{fill:#706f71;opacity:0.42;}.cls-46{fill:#6e6e70;opacity:0.43;}.cls-47{fill:#6d6c6e;opacity:0.44;}.cls-48{fill:#6c6b6d;opacity:0.45;}.cls-49{fill:#6a6a6c;opacity:0.46;}.cls-50{fill:#69686a;opacity:0.47;}.cls-51{fill:#686769;opacity:0.48;}.cls-52{fill:#666668;opacity:0.49;}.cls-53{fill:#656466;opacity:0.5;}.cls-54{fill:#646365;opacity:0.5;}.cls-55{fill:#636163;opacity:0.51;}.cls-56{fill:#616062;opacity:0.52;}.cls-57{fill:#605f61;opacity:0.53;}.cls-58{fill:#5f5d5f;opacity:0.54;}.cls-59{fill:#5d5c5e;opacity:0.55;}.cls-60{fill:#5c5b5d;opacity:0.56;}.cls-61{fill:#5b595b;opacity:0.57;}.cls-62{fill:#59585a;opacity:0.58;}.cls-63{fill:#585758;opacity:0.59;}.cls-64{fill:#575557;opacity:0.6;}.cls-65{fill:#565456;opacity:0.61;}.cls-66{fill:#545354;opacity:0.62;}.cls-67{fill:#535153;opacity:0.63;}.cls-68{fill:#525052;opacity:0.64;}.cls-69{fill:#504e50;opacity:0.65;}.cls-70{fill:#4f4d4f;opacity:0.66;}.cls-71{fill:#4e4c4d;opacity:0.67;}.cls-72{fill:#4d4a4c;opacity:0.68;}.cls-73{fill:#4b494b;opacity:0.69;}.cls-74{fill:#4a4849;opacity:0.7;}.cls-75{fill:#494648;opacity:0.71;}.cls-76{fill:#474547;opacity:0.72;}.cls-77{fill:#464445;opacity:0.73;}.cls-78{fill:#454244;opacity:0.74;}.cls-79{fill:#434142;opacity:0.75;}.cls-80{fill:#424041;opacity:0.76;}.cls-81{fill:#413e40;opacity:0.77;}.cls-82{fill:#403d3e;opacity:0.78;}.cls-83{fill:#3e3b3d;opacity:0.79;}.cls-84{fill:#3d3a3c;opacity:0.8;}.cls-85{fill:#3c393a;opacity:0.81;}.cls-86{fill:#3a3739;opacity:0.82;}.cls-87{fill:#393637;opacity:0.83;}.cls-88{fill:#383536;opacity:0.84;}.cls-89{fill:#363335;opacity:0.85;}.cls-90{fill:#353233;opacity:0.86;}.cls-91{fill:#343132;opacity:0.87;}.cls-92{fill:#332f31;opacity:0.88;}.cls-93{fill:#312e2f;opacity:0.89;}.cls-94{fill:#302d2e;opacity:0.9;}.cls-95{fill:#2f2b2c;opacity:0.91;}.cls-96{fill:#2d2a2b;opacity:0.92;}.cls-97{fill:#2c282a;opacity:0.93;}.cls-98{fill:#2b2728;opacity:0.94;}.cls-99{fill:#292627;opacity:0.95;}.cls-100{fill:#282426;opacity:0.96;}.cls-101{fill:#272324;opacity:0.97;}.cls-102{fill:#262223;opacity:0.98;}.cls-103{fill:#242021;opacity:0.99;}.cls-104{fill:#231f20;}.cls-105{fill:url(#linear-gradient);}.cls-106{fill:url(#linear-gradient-2);}.cls-107{fill:url(#linear-gradient-3);}.cls-108{fill:url(#linear-gradient-4);}.cls-109{fill:url(#linear-gradient-5);}.cls-110{fill:url(#linear-gradient-6);}.cls-111{fill:url(#linear-gradient-7);}.cls-112{fill:url(#linear-gradient-8);}.cls-113{fill:url(#linear-gradient-9);}.cls-114{fill:url(#linear-gradient-10);}.cls-115{fill:url(#linear-gradient-11);}</style><linearGradient id="linear-gradient" x1="140.32" y1="-32.83" x2="53.35" y2="34.94" gradientUnits="userSpaceOnUse"><stop offset="0" stop-color="#bc2e90"/><stop offset="0.52" stop-color="#90278e"/><stop offset="1" stop-color="#4b277a"/></linearGradient><linearGradient id="linear-gradient-2" x1="158.31" y1="-9.75" x2="71.33" y2="58.02" xlink:href="#linear-gradient"/><linearGradient id="linear-gradient-3" x1="150.02" y1="-20.55" x2="63.05" y2="47.22" xlink:href="#linear-gradient"/><linearGradient id="linear-gradient-4" x1="156.39" y1="-11.61" x2="69.42" y2="56.16" xlink:href="#linear-gradient"/><linearGradient id="linear-gradient-5" x1="148.49" y1="-22.35" x2="61.52" y2="45.43" xlink:href="#linear-gradient"/><linearGradient id="linear-gradient-6" x1="103.79" y1="-3.42" x2="63.13" y2="64.1" xlink:href="#linear-gradient"/><linearGradient id="linear-gradient-7" x1="77.92" y1="-19" x2="37.26" y2="48.52" xlink:href="#linear-gradient"/><linearGradient id="linear-gradient-8" x1="115.03" y1="3.34" x2="74.37" y2="70.86" xlink:href="#linear-gradient"/><linearGradient id="linear-gradient-9" x1="107.53" y1="-0.93" x2="66.87" y2="66.59" xlink:href="#linear-gradient"/><linearGradient id="linear-gradient-10" x1="116.5" y1="4.83" x2="75.84" y2="72.35" xlink:href="#linear-gradient"/><linearGradient id="linear-gradient-11" x1="108.74" y1="-0.61" x2="67.81" y2="67.36" xlink:href="#linear-gradient"/><symbol id="teamlogo4" data-name="teamlogo4" viewBox="0 0 132.81 107.9"><path class="cls-1" d="M14.57,101.87a3,3,0,0,1-2.5,1.92c-.93,0-1.79-.68-2.47-2L5,92.23V107.4H0V82H4.89l7.18,14.67L19.21,82H24.1V107.4h-5V92.23Z"/><path class="cls-1" d="M39.88,107.4l-1.43-2.46-5,2.67c-5.71,0-6.82-4.42-6.82-10.24,0-5,.28-10.21,6.78-10.21h4.89L43,86.87V107.4ZM38.34,91.33H34.81c-2.79,0-3.5,2.29-3.5,6s.71,5.35,3.5,5.35l3.53-1.82Z"/><path class="cls-1" d="M58.41,107.4l-3.61-6.25-3.39,6.25H45.84L52.45,97,46.09,87H51.3l3.57,5.89L58.34,87h5.21L57.19,97l6.43,10.39Z"/><path class="cls-1" d="M78.54,107.4l-1.42-2.46-5,2.67c-5.71,0-6.82-4.42-6.82-10.24,0-5,.29-10.21,6.79-10.21H77V80.55h4.64V107.4ZM77,91.33H73.47c-2.78,0-3.49,2.29-3.49,6s.71,5.35,3.49,5.35L77,100.9Z"/><path class="cls-1" d="M89.22,84.62c-2.22,0-2.71-.5-2.71-2.71s.49-2.68,2.71-2.68,2.68.47,2.68,2.68S91.43,84.62,89.22,84.62ZM86.86,107.4V87.76H91.5V107.4Z"/><path class="cls-1" d="M107.85,107.4v-13c0-2.54-1.25-3-2.71-3L101,93.08V107.4H96.32V87h3.47l1.07,2.43,5.71-2.64a5.2,5.2,0,0,1,4,1.64,6.9,6.9,0,0,1,1.9,5.29V107.4Z"/><path class="cls-1" d="M124.21,107.9c-7,0-8.57-4.36-8.57-10.78,0-5.93,1.6-10.39,8.57-10.39,6.71,0,8.6,4,8.6,10.39S131.31,107.9,124.21,107.9Zm4-11.57c0-2.93-.39-5.42-4-5.42-3.15,0-3.93,2.57-3.93,5.28v1.86c0,2.57.68,5.67,3.93,5.67,3.57,0,4-3.1,4-5.53Z"/><g class="cls-2"><path class="cls-3" d="M95.5,65.9c0,2.3-15,4.17-33.58,4.17S28.35,68.2,28.35,65.9s15-4.17,33.57-4.17S95.5,63.6,95.5,65.9Z"/><path class="cls-4" d="M95.21,65.9c0,2.28-14.9,4.13-33.29,4.13S28.64,68.18,28.64,65.9s14.9-4.13,33.28-4.13S95.21,63.62,95.21,65.9Z"/><path class="cls-5" d="M94.92,65.9c0,2.26-14.77,4.1-33,4.1s-33-1.84-33-4.1,14.77-4.1,33-4.1S94.92,63.64,94.92,65.9Z"/><path class="cls-6" d="M94.63,65.9C94.63,68.14,80,70,61.92,70S29.21,68.14,29.21,65.9s14.65-4.06,32.71-4.06S94.63,63.66,94.63,65.9Z"/><path class="cls-7" d="M94.35,65.9c0,2.22-14.52,4-32.43,4s-32.42-1.8-32.42-4,14.52-4,32.42-4S94.35,63.68,94.35,65.9Z"/><path class="cls-8" d="M94.06,65.9c0,2.2-14.39,4-32.14,4s-32.13-1.79-32.13-4,14.39-4,32.13-4S94.06,63.7,94.06,65.9Z"/><path class="cls-9" d="M93.77,65.9c0,2.18-14.26,3.95-31.85,3.95S30.08,68.08,30.08,65.9s14.26-4,31.84-4S93.77,63.72,93.77,65.9Z"/><path class="cls-10" d="M93.48,65.9c0,2.16-14.13,3.92-31.56,3.92S30.37,68.06,30.37,65.9,44.5,62,61.92,62,93.48,63.74,93.48,65.9Z"/><path class="cls-11" d="M93.19,65.9c0,2.14-14,3.88-31.27,3.88S30.65,68,30.65,65.9,44.65,62,61.92,62,93.19,63.76,93.19,65.9Z"/><path class="cls-12" d="M92.91,65.9c0,2.12-13.88,3.84-31,3.84s-31-1.72-31-3.84,13.87-3.85,31-3.85S92.91,63.78,92.91,65.9Z"/><path class="cls-13" d="M92.62,65.9c0,2.1-13.74,3.81-30.7,3.81S31.23,68,31.23,65.9,45,62.09,61.92,62.09,92.62,63.8,92.62,65.9Z"/><path class="cls-14" d="M92.33,65.9c0,2.08-13.61,3.77-30.41,3.77S31.52,68,31.52,65.9s13.61-3.77,30.4-3.77S92.33,63.81,92.33,65.9Z"/><path class="cls-15" d="M92,65.9c0,2.06-13.48,3.74-30.12,3.74S31.81,68,31.81,65.9s13.48-3.74,30.11-3.74S92,63.83,92,65.9Z"/><path class="cls-16" d="M91.75,65.9c0,2-13.35,3.7-29.83,3.7s-29.83-1.66-29.83-3.7,13.36-3.7,29.83-3.7S91.75,63.85,91.75,65.9Z"/><path class="cls-17" d="M91.47,65.9c0,2-13.23,3.67-29.55,3.67S32.38,67.92,32.38,65.9s13.23-3.67,29.54-3.67S91.47,63.87,91.47,65.9Z"/><path class="cls-18" d="M91.18,65.9c0,2-13.1,3.63-29.26,3.63S32.67,67.9,32.67,65.9s13.1-3.63,29.25-3.63S91.18,63.89,91.18,65.9Z"/><path class="cls-19" d="M90.89,65.9c0,2-13,3.59-29,3.59S33,67.88,33,65.9s13-3.6,29-3.6S90.89,63.91,90.89,65.9Z"/><path class="cls-20" d="M90.6,65.9c0,2-12.84,3.56-28.68,3.56S33.24,67.87,33.24,65.9s12.84-3.56,28.68-3.56S90.6,63.93,90.6,65.9Z"/><path class="cls-21" d="M90.32,65.9c0,1.95-12.72,3.52-28.4,3.52S33.53,67.85,33.53,65.9s12.71-3.52,28.39-3.52S90.32,64,90.32,65.9Z"/><path class="cls-22" d="M90,65.9c0,1.93-12.58,3.49-28.11,3.49s-28.1-1.56-28.1-3.49,12.58-3.49,28.1-3.49S90,64,90,65.9Z"/><path class="cls-23" d="M89.74,65.9c0,1.91-12.45,3.45-27.82,3.45S34.11,67.81,34.11,65.9s12.45-3.45,27.81-3.45S89.74,64,89.74,65.9Z"/><path class="cls-24" d="M89.45,65.9c0,1.89-12.32,3.42-27.53,3.42S34.4,67.79,34.4,65.9s12.32-3.42,27.52-3.42S89.45,64,89.45,65.9Z"/><path class="cls-25" d="M89.16,65.9c0,1.87-12.19,3.38-27.24,3.38S34.68,67.77,34.68,65.9s12.2-3.38,27.24-3.38S89.16,64,89.16,65.9Z"/><path class="cls-26" d="M88.88,65.9c0,1.85-12.07,3.34-27,3.34S35,67.75,35,65.9s12.07-3.35,27-3.35S88.88,64.05,88.88,65.9Z"/><path class="cls-27" d="M88.59,65.9c0,1.83-11.94,3.31-26.67,3.31S35.26,67.73,35.26,65.9s11.94-3.31,26.66-3.31S88.59,64.07,88.59,65.9Z"/><path class="cls-28" d="M88.3,65.9c0,1.81-11.81,3.27-26.38,3.27S35.55,67.71,35.55,65.9s11.81-3.27,26.37-3.27S88.3,64.09,88.3,65.9Z"/><path class="cls-29" d="M88,65.9c0,1.79-11.68,3.24-26.09,3.24S35.84,67.69,35.84,65.9s11.68-3.24,26.08-3.24S88,64.11,88,65.9Z"/><path class="cls-30" d="M87.72,65.9c0,1.77-11.55,3.2-25.8,3.2s-25.8-1.43-25.8-3.2,11.55-3.2,25.8-3.2S87.72,64.13,87.72,65.9Z"/><path class="cls-31" d="M87.44,65.9c0,1.75-11.43,3.17-25.52,3.17S36.41,67.65,36.41,65.9s11.42-3.17,25.51-3.17S87.44,64.15,87.44,65.9Z"/><path class="cls-32" d="M87.15,65.9c0,1.73-11.29,3.13-25.23,3.13S36.7,67.63,36.7,65.9,48,62.77,61.92,62.77,87.15,64.17,87.15,65.9Z"/><path class="cls-33" d="M86.86,65.9C86.86,67.61,75.7,69,61.92,69S37,67.61,37,65.9s11.16-3.1,24.93-3.1S86.86,64.19,86.86,65.9Z"/><path class="cls-34" d="M86.57,65.9c0,1.69-11,3.06-24.65,3.06S37.28,67.59,37.28,65.9s11-3.06,24.64-3.06S86.57,64.21,86.57,65.9Z"/><path class="cls-35" d="M86.28,65.9c0,1.67-10.9,3-24.36,3s-24.36-1.35-24.36-3,10.91-3,24.36-3S86.28,64.23,86.28,65.9Z"/><path class="cls-36" d="M86,65.9c0,1.65-10.78,3-24.08,3s-24.07-1.34-24.07-3,10.78-3,24.07-3S86,64.25,86,65.9Z"/><path class="cls-37" d="M85.71,65.9c0,1.63-10.65,2.95-23.79,2.95S38.14,67.53,38.14,65.9s10.65-3,23.78-3S85.71,64.27,85.71,65.9Z"/><path class="cls-38" d="M85.42,65.9c0,1.61-10.52,2.92-23.5,2.92S38.43,67.51,38.43,65.9,49,63,61.92,63,85.42,64.29,85.42,65.9Z"/><path class="cls-39" d="M85.13,65.9c0,1.59-10.39,2.88-23.21,2.88S38.71,67.49,38.71,65.9,49.11,63,61.92,63,85.13,64.31,85.13,65.9Z"/><path class="cls-40" d="M84.85,65.9c0,1.57-10.27,2.84-22.93,2.84S39,67.47,39,65.9s10.26-2.85,22.92-2.85S84.85,64.33,84.85,65.9Z"/><path class="cls-41" d="M84.56,65.9c0,1.55-10.14,2.81-22.64,2.81S39.29,67.45,39.29,65.9s10.13-2.81,22.63-2.81S84.56,64.35,84.56,65.9Z"/><path class="cls-42" d="M84.27,65.9c0,1.53-10,2.77-22.35,2.77S39.58,67.43,39.58,65.9s10-2.77,22.34-2.77S84.27,64.37,84.27,65.9Z"/><path class="cls-43" d="M84,65.9c0,1.51-9.87,2.74-22.06,2.74S39.87,67.41,39.87,65.9s9.87-2.74,22.05-2.74S84,64.39,84,65.9Z"/><path class="cls-44" d="M83.69,65.9c0,1.49-9.74,2.7-21.77,2.7s-21.77-1.21-21.77-2.7,9.75-2.7,21.77-2.7S83.69,64.41,83.69,65.9Z"/><path class="cls-45" d="M83.41,65.9c0,1.47-9.62,2.67-21.49,2.67s-21.48-1.2-21.48-2.67,9.62-2.67,21.48-2.67S83.41,64.43,83.41,65.9Z"/><path class="cls-46" d="M83.12,65.9c0,1.45-9.49,2.63-21.2,2.63S40.73,67.35,40.73,65.9s9.49-2.63,21.19-2.63S83.12,64.45,83.12,65.9Z"/><path class="cls-47" d="M82.83,65.9c0,1.43-9.36,2.59-20.91,2.59S41,67.33,41,65.9s9.36-2.6,20.9-2.6S82.83,64.47,82.83,65.9Z"/><path class="cls-48" d="M82.54,65.9c0,1.41-9.23,2.56-20.62,2.56S41.31,67.31,41.31,65.9s9.23-2.56,20.61-2.56S82.54,64.49,82.54,65.9Z"/><path class="cls-49" d="M82.25,65.9c0,1.39-9.1,2.52-20.33,2.52S41.59,67.29,41.59,65.9s9.11-2.52,20.33-2.52S82.25,64.51,82.25,65.9Z"/><path class="cls-50" d="M82,65.9c0,1.37-9,2.49-20,2.49s-20-1.12-20-2.49,9-2.49,20-2.49S82,64.53,82,65.9Z"/><path class="cls-51" d="M81.68,65.9c0,1.35-8.85,2.45-19.76,2.45s-19.75-1.1-19.75-2.45S51,63.45,61.92,63.45,81.68,64.55,81.68,65.9Z"/><path class="cls-52" d="M81.39,65.9c0,1.33-8.71,2.42-19.47,2.42S42.46,67.23,42.46,65.9s8.71-2.42,19.46-2.42S81.39,64.56,81.39,65.9Z"/><path class="cls-53" d="M81.1,65.9c0,1.31-8.58,2.38-19.18,2.38S42.75,67.21,42.75,65.9s8.58-2.38,19.17-2.38S81.1,64.58,81.1,65.9Z"/><path class="cls-54" d="M80.81,65.9c0,1.29-8.45,2.34-18.89,2.34S43,67.19,43,65.9s8.46-2.35,18.89-2.35S80.81,64.6,80.81,65.9Z"/><path class="cls-55" d="M80.53,65.9c0,1.27-8.33,2.31-18.61,2.31s-18.6-1-18.6-2.31,8.33-2.31,18.6-2.31S80.53,64.62,80.53,65.9Z"/><path class="cls-56" d="M80.24,65.9c0,1.25-8.2,2.27-18.32,2.27s-18.31-1-18.31-2.27,8.2-2.27,18.31-2.27S80.24,64.64,80.24,65.9Z"/><path class="cls-57" d="M80,65.9c0,1.24-8.07,2.24-18,2.24s-18-1-18-2.24,8.07-2.24,18-2.24S80,64.66,80,65.9Z"/><path class="cls-58" d="M79.66,65.9c0,1.22-7.94,2.2-17.74,2.2s-17.74-1-17.74-2.2,8-2.2,17.74-2.2S79.66,64.68,79.66,65.9Z"/><path class="cls-59" d="M79.38,65.9c0,1.2-7.82,2.17-17.46,2.17s-17.45-1-17.45-2.17,7.82-2.17,17.45-2.17S79.38,64.7,79.38,65.9Z"/><path class="cls-60" d="M79.09,65.9c0,1.18-7.69,2.13-17.17,2.13s-17.16-1-17.16-2.13,7.68-2.13,17.16-2.13S79.09,64.72,79.09,65.9Z"/><path class="cls-61" d="M78.8,65.9c0,1.16-7.56,2.09-16.88,2.09s-16.87-.93-16.87-2.09,7.55-2.1,16.87-2.1S78.8,64.74,78.8,65.9Z"/><path class="cls-62" d="M78.51,65.9C78.51,67,71.09,68,61.92,68S45.34,67,45.34,65.9s7.42-2.06,16.58-2.06S78.51,64.76,78.51,65.9Z"/><path class="cls-63" d="M78.22,65.9c0,1.12-7.29,2-16.3,2s-16.3-.9-16.3-2,7.3-2,16.3-2S78.22,64.78,78.22,65.9Z"/><path class="cls-64" d="M77.94,65.9c0,1.1-7.17,2-16,2s-16-.89-16-2,7.17-2,16-2S77.94,64.8,77.94,65.9Z"/><path class="cls-65" d="M77.65,65.9c0,1.08-7,1.95-15.73,1.95S46.2,67,46.2,65.9s7-2,15.72-2S77.65,64.82,77.65,65.9Z"/><path class="cls-66" d="M77.36,65.9c0,1.06-6.91,1.92-15.44,1.92S46.49,67,46.49,65.9,53.4,64,61.92,64,77.36,64.84,77.36,65.9Z"/><path class="cls-67" d="M77.07,65.9c0,1-6.78,1.88-15.15,1.88s-15.14-.84-15.14-1.88S53.56,64,61.92,64,77.07,64.86,77.07,65.9Z"/><path class="cls-68" d="M76.78,65.9c0,1-6.65,1.84-14.86,1.84s-14.86-.82-14.86-1.84,6.66-1.85,14.86-1.85S76.78,64.88,76.78,65.9Z"/><path class="cls-69" d="M76.5,65.9c0,1-6.53,1.81-14.58,1.81S47.35,66.9,47.35,65.9s6.53-1.81,14.57-1.81S76.5,64.9,76.5,65.9Z"/><path class="cls-70" d="M76.21,65.9c0,1-6.4,1.77-14.29,1.77s-14.28-.79-14.28-1.77S54,64.13,61.92,64.13,76.21,64.92,76.21,65.9Z"/><path class="cls-71" d="M75.92,65.9c0,1-6.27,1.74-14,1.74s-14-.78-14-1.74,6.26-1.74,14-1.74S75.92,64.94,75.92,65.9Z"/><path class="cls-72" d="M75.63,65.9c0,.94-6.13,1.7-13.71,1.7s-13.7-.76-13.7-1.7,6.13-1.7,13.7-1.7S75.63,65,75.63,65.9Z"/><path class="cls-73" d="M75.35,65.9c0,.92-6,1.67-13.43,1.67S48.5,66.82,48.5,65.9s6-1.67,13.42-1.67S75.35,65,75.35,65.9Z"/><path class="cls-74" d="M75.06,65.9c0,.9-5.88,1.63-13.14,1.63S48.79,66.8,48.79,65.9s5.88-1.63,13.13-1.63S75.06,65,75.06,65.9Z"/><path class="cls-75" d="M74.77,65.9c0,.88-5.75,1.59-12.85,1.59s-12.84-.71-12.84-1.59,5.75-1.59,12.84-1.59S74.77,65,74.77,65.9Z"/><path class="cls-76" d="M74.48,65.9c0,.86-5.62,1.56-12.56,1.56s-12.55-.7-12.55-1.56S55,64.34,61.92,64.34,74.48,65,74.48,65.9Z"/><ellipse class="cls-77" cx="61.92" cy="65.9" rx="12.27" ry="1.52"/><ellipse class="cls-78" cx="61.92" cy="65.9" rx="11.98" ry="1.49"/><ellipse class="cls-79" cx="61.92" cy="65.9" rx="11.69" ry="1.45"/><ellipse class="cls-80" cx="61.92" cy="65.9" rx="11.41" ry="1.42"/><ellipse class="cls-81" cx="61.92" cy="65.9" rx="11.12" ry="1.38"/><ellipse class="cls-82" cx="61.92" cy="65.9" rx="10.83" ry="1.34"/><ellipse class="cls-83" cx="61.92" cy="65.9" rx="10.54" ry="1.31"/><path class="cls-84" d="M72.18,65.9c0,.7-4.59,1.27-10.26,1.27S51.67,66.6,51.67,65.9s4.59-1.27,10.25-1.27S72.18,65.2,72.18,65.9Z"/><path class="cls-85" d="M71.89,65.9c0,.68-4.46,1.24-10,1.24s-10-.56-10-1.24,4.46-1.24,10-1.24S71.89,65.22,71.89,65.9Z"/><path class="cls-86" d="M71.6,65.9c0,.66-4.33,1.2-9.68,1.2s-9.67-.54-9.67-1.2,4.33-1.2,9.67-1.2S71.6,65.24,71.6,65.9Z"/><path class="cls-87" d="M71.31,65.9c0,.64-4.2,1.16-9.39,1.16s-9.39-.52-9.39-1.16,4.21-1.17,9.39-1.17S71.31,65.26,71.31,65.9Z"/><path class="cls-88" d="M71,65.9C71,66.52,67,67,61.92,67s-9.1-.51-9.1-1.13,4.08-1.13,9.1-1.13S71,65.28,71,65.9Z"/><path class="cls-89" d="M70.74,65.9c0,.6-3.95,1.09-8.82,1.09s-8.81-.49-8.81-1.09,4-1.09,8.81-1.09S70.74,65.3,70.74,65.9Z"/><path class="cls-90" d="M70.45,65.9c0,.58-3.82,1.06-8.53,1.06s-8.52-.48-8.52-1.06,3.81-1.06,8.52-1.06S70.45,65.31,70.45,65.9Z"/><path class="cls-91" d="M70.16,65.9c0,.56-3.69,1-8.24,1s-8.24-.46-8.24-1,3.69-1,8.24-1S70.16,65.33,70.16,65.9Z"/><path class="cls-92" d="M69.88,65.9c0,.54-3.56,1-8,1s-8-.45-8-1,3.56-1,8-1S69.88,65.35,69.88,65.9Z"/><path class="cls-93" d="M69.59,65.9c0,.52-3.43.95-7.67.95s-7.66-.43-7.66-.95,3.43-1,7.66-1S69.59,65.37,69.59,65.9Z"/><path class="cls-94" d="M69.3,65.9c0,.5-3.3.91-7.38.91s-7.37-.41-7.37-.91,3.3-.92,7.37-.92S69.3,65.39,69.3,65.9Z"/><path class="cls-95" d="M69,65.9c0,.49-3.17.88-7.09.88s-7.08-.39-7.08-.88S58,65,61.92,65,69,65.41,69,65.9Z"/><path class="cls-96" d="M68.72,65.9c0,.47-3,.84-6.8.84s-6.8-.37-6.8-.84,3.05-.84,6.8-.84S68.72,65.43,68.72,65.9Z"/><path class="cls-97" d="M68.44,65.9c0,.45-2.92.81-6.52.81s-6.51-.36-6.51-.81,2.92-.81,6.51-.81S68.44,65.45,68.44,65.9Z"/><path class="cls-98" d="M68.15,65.9c0,.43-2.79.77-6.23.77s-6.22-.34-6.22-.77,2.79-.77,6.22-.77S68.15,65.47,68.15,65.9Z"/><path class="cls-99" d="M67.86,65.9c0,.41-2.66.74-5.94.74S56,66.31,56,65.9s2.66-.74,5.93-.74S67.86,65.49,67.86,65.9Z"/><path class="cls-100" d="M67.57,65.9c0,.39-2.53.7-5.65.7s-5.64-.31-5.64-.7,2.52-.7,5.64-.7S67.57,65.51,67.57,65.9Z"/><path class="cls-101" d="M67.28,65.9c0,.37-2.4.66-5.36.66s-5.36-.29-5.36-.66,2.4-.67,5.36-.67S67.28,65.53,67.28,65.9Z"/><path class="cls-102" d="M67,65.9c0,.35-2.27.63-5.08.63s-5.07-.28-5.07-.63,2.27-.63,5.07-.63S67,65.55,67,65.9Z"/><path class="cls-103" d="M66.71,65.9c0,.33-2.14.59-4.79.59s-4.78-.26-4.78-.59,2.14-.59,4.78-.59S66.71,65.57,66.71,65.9Z"/><path class="cls-104" d="M66.42,65.9c0,.31-2,.56-4.5.56s-4.49-.25-4.49-.56,2-.56,4.49-.56S66.42,65.59,66.42,65.9Z"/></g><path class="cls-105" d="M47.67,8.77h0a5.47,5.47,0,0,1,3.89,1.62l15.5,16.12a1.1,1.1,0,0,0,1.63,0L83.3,11.3A29.79,29.79,0,1,0,80,51.81V31.16a.55.55,0,0,0-.94-.39l-9.57,11a2.2,2.2,0,0,1-3.31,0l-9.57-11a.55.55,0,0,0-.94.39V52.47c-6,0-10.8-4-10.8-9.94v-31A2.77,2.77,0,0,1,47.67,8.77Z"/><rect class="cls-106" x="86.41" y="37.01" width="10.41" height="10.41" rx="1.68" ry="1.68"/><rect class="cls-107" x="88.27" y="20.55" width="7.9" height="7.9" rx="1.52" ry="1.52"/><rect class="cls-108" x="96.82" y="29.35" width="6.14" height="6.14" rx="1.07" ry="1.07"/><rect class="cls-109" x="96.11" y="14.46" width="4.51" height="4.51" rx="0.83" ry="0.83"/><path class="cls-110" d="M67.87,43.9a2.77,2.77,0,0,1-.3,0,43,43,0,0,1,3,12.29,28.41,28.41,0,0,0,8.11-5V33.38l-8.09,9.29A3.57,3.57,0,0,1,67.87,43.9Z"/><path class="cls-111" d="M60,1.38A28.42,28.42,0,0,0,34.74,16.72a43.08,43.08,0,0,1,8.78,2.67V11.55a4.16,4.16,0,0,1,4.15-4.16,7,7,0,0,1,4.89,2L67.87,25.37,81.46,11.23A28.27,28.27,0,0,0,60,1.38Z"/><rect class="cls-112" x="87.32" y="37.92" width="8.6" height="8.6" rx="0.78" ry="0.78"/><rect class="cls-113" x="89.17" y="21.45" width="6.09" height="6.09" rx="0.62" ry="0.62"/><rect class="cls-114" x="97.72" y="30.25" width="4.33" height="4.34" rx="0.17" ry="0.17"/><rect class="cls-115" x="96.94" y="15.29" width="2.78" height="2.78"/></symbol></defs><title>img_team4</title><g id="Layer_2" data-name="Layer 2"><g id="Layer_1-2" data-name="Layer 1"><use width="132.81" height="107.9" xlink:href="#teamlogo4"/></g></g></svg>