<svg xmlns="http://www.w3.org/2000/svg" xmlns:xlink="http://www.w3.org/1999/xlink" viewBox="0 0 440 486.7"><defs><style>.cls-1{fill:#3a58c7;}.cls-2{opacity:0.2;}.cls-10,.cls-3,.cls-30,.cls-5,.cls-60{mix-blend-mode:multiply;}.cls-4{fill:#bec0c1;}.cls-40,.cls-5{fill:#d3d5d6;}.cls-6{fill:#916d61;}.cls-7{fill:#b59288;}.cls-10,.cls-8{fill:#816257;}.cls-9{fill:#a47b6e;}.cls-10,.cls-60{opacity:0.17;}.cls-11{fill:#6d5248;}.cls-12{fill:#639749;}.cls-13{fill:#83ba5d;}.cls-14{fill:#9ad16f;}.cls-15{fill:#c2c4c6;}.cls-16{fill:#5b5b5b;}.cls-17{fill:#383939;}.cls-18{fill:#656565;}.cls-19{fill:#2b2e2e;}.cls-20{fill:#c2c2c2;}.cls-21{fill:#fbfbfb;}.cls-22{fill:#c3c4c6;}.cls-23{fill:#919295;}.cls-24{fill:#e2e3e4;}.cls-25{fill:#c8cacb;}.cls-26{fill:#616161;}.cls-27{fill:#3e4040;}.cls-28{fill:#292b2b;}.cls-29{fill:#4a4c4e;}.cls-30{fill:#d0d2d3;}.cls-31{isolation:isolate;}.cls-32{fill:#bbbcbd;}.cls-33{fill:#5a5c5e;}.cls-34{fill:#6d7071;}.cls-35{fill:#e8e8e8;}.cls-36{fill:#747577;}.cls-37{fill:#989a9c;}.cls-38{fill:#6b6c6e;}.cls-39{fill:#7d7d80;}.cls-41{fill:#666;}.cls-42{fill:gray;}.cls-43{fill:#4d4d4d;}.cls-44{fill:#f5f5f5;}.cls-45{fill:#333;}.cls-46{fill:#fff;}.cls-47{fill:#e5e5e5;}.cls-48{fill:#323333;}.cls-49{fill:#a2a5a7;}.cls-50{fill:#e0e0e0;}.cls-51{fill:#272727;}.cls-52{fill:#9aabfa;}.cls-53{fill:#bbc7fb;}.cls-54{fill:#a7a9ab;}.cls-55{fill:#dbdbdc;}.cls-56{fill:#ebebec;}.cls-57{fill:#cdced0;}.cls-58{fill:#b8b8bb;}.cls-59{fill:#7b7c7f;}.cls-60{fill:#afb1b4;}.cls-61{fill:#5d4037;}.cls-62{fill:#4e342e;}.cls-63{fill:#c0c2c4;}.cls-64{fill:#848688;}</style><symbol id="about" data-name="about" viewBox="0 0 361.62 400"><path class="cls-1" d="M355.82,263.26a6.32,6.32,0,0,1-2.82,3.07L166.55,374.65a11.25,11.25,0,0,1-1.89.87,17.31,17.31,0,0,1-4.51.87l-1.05,0c-.8,0-1.1,0-1.38-.07a17.46,17.46,0,0,1-3.14-.57,12,12,0,0,1-1.69-.62c-.59-.28-.79-.39-1-.5L3.06,288.72a8.87,8.87,0,0,1-1.17-.8,5.53,5.53,0,0,1-1.48-1.81A3.73,3.73,0,0,1,0,284.88a2.2,2.2,0,0,1,0-.44v1.8a3.15,3.15,0,0,0,0,.44,3.54,3.54,0,0,0,.37,1.24,5.54,5.54,0,0,0,1.49,1.8,8.74,8.74,0,0,0,1.16.8L151.9,376.46c.19.11.39.22,1,.5a12.89,12.89,0,0,0,1.69.62,18.06,18.06,0,0,0,3.13.57c.29,0,.58,0,1.38.06.35,0,.7,0,1,0a16.9,16.9,0,0,0,4.51-.87,10.18,10.18,0,0,0,1.89-.86L353,268.13a6.34,6.34,0,0,0,2.81-3.07,3.67,3.67,0,0,0,.2-1.12v-1.81A3.39,3.39,0,0,1,355.82,263.26Z"/><path class="cls-2" d="M355.82,263.26a6.32,6.32,0,0,1-2.82,3.07L166.55,374.65a11.25,11.25,0,0,1-1.89.87,17.31,17.31,0,0,1-4.51.87l-1.05,0c-.8,0-1.1,0-1.38-.07a17.46,17.46,0,0,1-3.14-.57,12,12,0,0,1-1.69-.62c-.59-.28-.79-.39-1-.5L3.06,288.72a8.87,8.87,0,0,1-1.17-.8,5.53,5.53,0,0,1-1.48-1.81A3.73,3.73,0,0,1,0,284.88a2.2,2.2,0,0,1,0-.44v1.8a3.15,3.15,0,0,0,0,.44,3.54,3.54,0,0,0,.37,1.24,5.54,5.54,0,0,0,1.49,1.8,8.74,8.74,0,0,0,1.16.8L151.9,376.46c.19.11.39.22,1,.5a12.89,12.89,0,0,0,1.69.62,18.06,18.06,0,0,0,3.13.57c.29,0,.58,0,1.38.06.35,0,.7,0,1,0a16.9,16.9,0,0,0,4.51-.87,10.18,10.18,0,0,0,1.89-.86L353,268.13a6.34,6.34,0,0,0,2.81-3.07,3.67,3.67,0,0,0,.2-1.12v-1.81A3.39,3.39,0,0,1,355.82,263.26Z"/><path class="cls-1" d="M353.37,257.77a7.53,7.53,0,0,1,1.17.81,5.54,5.54,0,0,1,1.49,1.8,3.55,3.55,0,0,1,.37,1.23,3.41,3.41,0,0,1-.16,1.58,6.38,6.38,0,0,1-2.82,3.08L166.75,374.72a10.27,10.27,0,0,1-1.9.86,16.9,16.9,0,0,1-4.51.87c-.35,0-.7,0-1.05,0-.8,0-1.1,0-1.38-.06a17.12,17.12,0,0,1-3.14-.57,12.38,12.38,0,0,1-1.69-.62c-.6-.29-.8-.39-1-.5l-149-86a8.25,8.25,0,0,1-1.17-.8,5.7,5.7,0,0,1-1.49-1.81A3.49,3.49,0,0,1,0,284.84a3.55,3.55,0,0,1,.16-1.58A6.32,6.32,0,0,1,3,280.19L189.69,171.74a11,11,0,0,1,1.9-.87,17.31,17.31,0,0,1,4.51-.87c.35,0,.7,0,1.05,0,.81,0,1.1,0,1.38.07a17.43,17.43,0,0,1,3.15.57,13.44,13.44,0,0,1,1.69.62c.59.28.79.39,1,.5Z"/><g class="cls-3"><path class="cls-4" d="M114.29,400a18.81,18.81,0,0,1-8.66-2.09l-14.26-7.37a16.11,16.11,0,0,1-.53-28.85L93.93,360a14,14,0,0,0-.56-25.13,16.6,16.6,0,0,0-15.31.24L48.68,351.21a19,19,0,0,1-18.22,0l-8.06-4.49A16.1,16.1,0,0,1,22.55,318l36.1-19.65a1.22,1.22,0,0,1,1.6.39,1.06,1.06,0,0,1-.42,1.49L23.72,319.86a14,14,0,0,0-.13,24.94l8.06,4.49a16.5,16.5,0,0,0,15.84,0l29.38-16.14a19.08,19.08,0,0,1,17.62-.27,16.12,16.12,0,0,1,.64,28.91L92,363.55a14,14,0,0,0,.46,25.09L106.76,396a16.44,16.44,0,0,0,15.93-.48l27.13-16.28a18.89,18.89,0,0,1,18.68-.37l5,2.71a16.39,16.39,0,0,0,17.32-1l9.87-7.1a1.22,1.22,0,0,1,1.64.2,1,1,0,0,1-.21,1.53l-9.88,7.1a18.85,18.85,0,0,1-19.92,1.19l-5-2.71a16.4,16.4,0,0,0-16.23.32L124,397.35A18.83,18.83,0,0,1,114.29,400Z"/></g><path class="cls-5" d="M162,199.84a16.62,16.62,0,0,1-5.32-4.11c0,.15-.09.29-.13.44-1.06,3.55-2,7.23-.76,10.48a9.16,9.16,0,0,0,3.41,4.13c-1.4.55-2.8,1.11-4.22,1.62a16.86,16.86,0,0,1-3.25.9,14,14,0,0,1-3.17,0c-1.23-.09-2.44-.24-3.61-.44,2.25,3.06,7.17,4.65,12.23,4.48a26.74,26.74,0,0,0,4.78-.62,18.71,18.71,0,0,0,3.46,2.29c.45.25.9.49,1.37.71a7.63,7.63,0,0,0,.76,2.75c1.34,2.7,4.39,4.77,8.19,5.57a5.36,5.36,0,0,1-1.6-4.53,9.2,9.2,0,0,1,.43-1.89c.06.06.11.13.18.19,2.93,2.7,7.62,3.88,12.66,3.72a37,37,0,0,0,12.33-2.74c-4.35-.2-8.81-1.17-12-3.15-.63-.39-1.26-.83-1.87-1.28a36.32,36.32,0,0,0,6.43-.3,32.34,32.34,0,0,0,14.19-5.45l-.51,0a33.82,33.82,0,0,1-12.12-.9l12.93-10.11a5.14,5.14,0,0,0,2-4.81,7.25,7.25,0,0,0-.33-1.5c-.08-.24-.17-.47-.27-.7a13.16,13.16,0,0,0-3.15-4.31,23.21,23.21,0,0,0-9.56-5.28,21.68,21.68,0,0,0-3.07-.62l-.37-.05a17,17,0,0,0-2.1-.11c-.5,0-1,0-1.44.07l-.8.11a9,9,0,0,0-4.1,1.65l-9.94,7.76c-.13-.68-.26-1.36-.38-2a6.06,6.06,0,0,1,.16-3.78l-.33.18a31.78,31.78,0,0,0-7.65,5.5A12.8,12.8,0,0,0,162,199.84Zm15.66.14.32.11Zm1.53.55.43.17Zm10.67,9.69h0c0-.06,0-.12,0-.18S189.86,210.16,189.88,210.22Zm-.07-.23a8,8,0,0,0-.3-.76l.07.14A6.56,6.56,0,0,1,189.81,210Z"/><path class="cls-6" d="M216,162.32l-.09,29.22a7.57,7.57,0,0,1-1.8,4.72,7.92,7.92,0,0,1-.61.69,11.9,11.9,0,0,1-1.21,1.11,16,16,0,0,1-2,1.39l-.39.22a21.76,21.76,0,0,1-3.51,1.53,31.88,31.88,0,0,1-14.74,1.19A26,26,0,0,1,183.8,200c-.36-.17-.71-.36-1.05-.56a16.88,16.88,0,0,1-2-1.38c-2.47-2-3.71-4.31-3.7-6.64l.08-29.21c0,2.31,1.21,4.61,3.62,6.56a15.74,15.74,0,0,0,2.12,1.45c.32.18.64.36,1,.52a26,26,0,0,0,7.83,2.41c6,.92,12.71.13,17.68-2.37l.57-.29.47-.27a16.57,16.57,0,0,0,2-1.32,11.78,11.78,0,0,0,1.21-1.09c.22-.23.42-.45.61-.68A7.64,7.64,0,0,0,216,162.32Z"/><ellipse class="cls-7" cx="196.59" cy="162.03" rx="11.4" ry="19.68" transform="translate(34.01 358.16) rotate(-89.84)"/><path class="cls-8" d="M192,172.91v29.87a26.77,26.77,0,0,1-8-2.43v-29.9A26.71,26.71,0,0,0,192,172.91Z"/><path class="cls-8" d="M181,167.85v31.61c-2.68-2.13-4-4.65-4-7.17l.08-31.51C177.09,163.26,178.4,165.74,181,167.85Z"/><path class="cls-9" d="M212,168.75v29.49c-.09.49-.78,1-1.54,1.41a2.85,2.85,0,0,1-.46.22V170.35a3.16,3.16,0,0,0,.55-.26C211.28,169.67,211.94,169.22,212,168.75Z"/><path class="cls-9" d="M214,167v29.46c.17.23,0,.47,1,.69V167.65C214,167.42,214.18,167.19,214,167Z"/><path class="cls-10" d="M209.69,170.65l-3,30.77a32.47,32.47,0,0,1-14.91,1.2,26.68,26.68,0,0,1-7.93-2.41c-.36-.18-.71-.36-1.05-.56a16.6,16.6,0,0,1-2.07-1.4c-2.5-2-3.75-4.36-3.74-6.72l.08-29.54c0,2.33,1.22,4.66,3.66,6.63a16.18,16.18,0,0,0,2.15,1.47c.32.18.64.36,1,.52a26.62,26.62,0,0,0,7.93,2.44C197.91,174,204.65,173.19,209.69,170.65Z"/><ellipse class="cls-11" cx="196.59" cy="162.03" rx="9.8" ry="16.92" transform="translate(34.01 358.16) rotate(-89.84)"/><path class="cls-12" d="M186.48,151.57c-.64-2.7-.52-5.48,2-7.38a7,7,0,0,1,2.31-1.11,19.5,19.5,0,0,1,3.75-.55,20.62,20.62,0,0,1,8,.44c2.54.82,4.86,2.87,5.23,5.51a9.52,9.52,0,0,1-1.21,5.23c-1.33,2.78-3.23,5.57-6.14,6.56-4,1.35-8.63.67-11.35-2.67a7.94,7.94,0,0,1-1.09-2A25.39,25.39,0,0,1,186.48,151.57Z"/><path class="cls-13" d="M196.61,159.84c3.45-2,1.58-8.55.23-11.42a16.77,16.77,0,0,0-8.32-8.12,17.72,17.72,0,0,0-14-.11,11.78,11.78,0,0,1,6.75,3.77,22.84,22.84,0,0,1,4.09,6.69,52,52,0,0,0,2.24,5.07,9.85,9.85,0,0,0,3.73,4A5.5,5.5,0,0,0,196.61,159.84Z"/><path class="cls-13" d="M195.88,153.66c1-5.8,3.67-11.44,8.12-15.31s10.81-5.7,16.45-4a37.93,37.93,0,0,0-3.84,2.14,12.45,12.45,0,0,0-2.85,2.36,13.47,13.47,0,0,0-1.93,3.33c-2.09,4.76-3.57,9.87-6.61,14.08a9.74,9.74,0,0,1-2.93,2.86,12.34,12.34,0,0,1-3.82,1.2c-1.47.29-2.83.33-3-1.32A19.94,19.94,0,0,1,195.88,153.66Z"/><path class="cls-13" d="M229.73,161.56a30.57,30.57,0,0,0-12.78-.2c-4.24.68-8.41,1.76-12.67,2.28-3,.37-6.93,0-9.39-1.94a3.61,3.61,0,0,1-1-4.22,12.12,12.12,0,0,1,3.65-5.13c2.39-1.94,4.35-3.74,7.41-4.66A17.29,17.29,0,0,1,217.8,149c4.95,2.61,8.37,7.33,11.55,12Z"/><path class="cls-14" d="M193.88,158.35a12.22,12.22,0,0,1,3.65-5.14c2.39-1.94,4.35-3.73,7.41-4.65a17.23,17.23,0,0,1,12.86,1.33c4.78,2.53,8.13,7,11.22,11.49l.71.18-.38-.56c-3.18-4.64-6.6-9.36-11.55-12a17.29,17.29,0,0,0-12.86-1.34c-3.06.92-5,2.72-7.41,4.66a12.12,12.12,0,0,0-3.65,5.13,5,5,0,0,0-.24,2A5.79,5.79,0,0,1,193.88,158.35Z"/><path class="cls-12" d="M229.73,161.56a30.57,30.57,0,0,0-12.78-.2c-4.24.68-8.41,1.76-12.67,2.28-3,.37-6.93,0-9.39-1.94a3.61,3.61,0,0,1-1-4.22,18.75,18.75,0,0,1,6.61-3.48,25.87,25.87,0,0,1,5.81-.77,31,31,0,0,1,9,.74,41.31,41.31,0,0,1,7.65,3.14,34.26,34.26,0,0,1,5.56,3.17,9.89,9.89,0,0,1,.88.72Z"/><path class="cls-13" d="M223.33,181.7c0,.15-.06.29-.1.44a12.92,12.92,0,0,0-4.25-4.23c-4.39-3.16-8.89-6.39-14.11-7.79-1.89-.52-4-.85-5.33-2.27a4,4,0,0,1-1.12-2.44,8.86,8.86,0,0,1,1.81-5.44,11,11,0,0,1,7.57-4.53,13.61,13.61,0,0,1,11,4,19.07,19.07,0,0,1,5.16,10.69A31.88,31.88,0,0,1,223.33,181.7Z"/><path class="cls-12" d="M223.33,181.7c0,.15-.06.29-.1.44a12.92,12.92,0,0,0-4.25-4.23c-4.39-3.16-8.89-6.39-14.11-7.79-1.89-.52-4-.85-5.33-2.27a4,4,0,0,1-1.12-2.44,11,11,0,0,1,7.75-.13c5.37,2,9.5,6.34,13.44,10.52a20.43,20.43,0,0,1,2.21,2.62A11.64,11.64,0,0,1,223.33,181.7Z"/><path class="cls-12" d="M182.69,146.25a20.17,20.17,0,0,0-15.94,5.16,30.29,30.29,0,0,0-8.1,11.94,27.78,27.78,0,0,1,14.63-5.26,35.29,35.29,0,0,1,11,1.32,31.51,31.51,0,0,0,3.36,1.12c2.33.47,7,.42,6.68-3s-3.19-7-5.81-8.91A13,13,0,0,0,182.69,146.25Z"/><path class="cls-13" d="M194.21,164.56c-.13.2-.27.41-.42.61a8.18,8.18,0,0,1-2.35,2.07c-3.64,2.16-7.82,2.36-11.86,3.16-5.69,1.13-10.78,4.42-14.86,8.55l-.41.42A27.28,27.28,0,0,1,171,163.13c3.72-4.31,10-9,16-8.55C191.71,154.93,197.15,159.8,194.21,164.56Z"/><path class="cls-12" d="M194.21,164.56c-.13.2-.27.41-.42.61a8.18,8.18,0,0,1-2.35,2.07c-3.64,2.16-7.82,2.36-11.86,3.16-5.69,1.13-10.78,4.42-14.86,8.55,2-3.08,5.09-5.4,8.1-7.58a43.9,43.9,0,0,1,4-2.66c3.73-2.12,8-3.12,12.2-3.9A14.18,14.18,0,0,1,194.21,164.56Z"/><path class="cls-13" d="M202.57,173.47a85.1,85.1,0,0,1-4.41,7.62,55.81,55.81,0,0,0-5,11.17,19,19,0,0,1-8.56-11.95,19.57,19.57,0,0,1-.44-4.73,20.93,20.93,0,0,1,4.18-12.23,6.25,6.25,0,0,1,3.2-2.42,7.43,7.43,0,0,1,2.16-.07l.85,0,4.84.3a7.41,7.41,0,0,1,2.81.56,3.59,3.59,0,0,1,.47.27,4.17,4.17,0,0,1,1.55,2.88A16,16,0,0,1,202.57,173.47Z"/><path class="cls-14" d="M202.57,173.47a85.1,85.1,0,0,1-4.41,7.62,55.81,55.81,0,0,0-5,11.17,19,19,0,0,1-8.56-11.95,19.57,19.57,0,0,1-.44-4.73c.58,1.52.5,4.21.71,5a15.17,15.17,0,0,0,3.3,6.41,2.54,2.54,0,0,0,1.31.88c1.09.21,2-.83,2.59-1.76a108.56,108.56,0,0,0,7-12.35c1.42-3,2.73-6.06,2.77-9.34a5.84,5.84,0,0,1,.4-2.69,3.59,3.59,0,0,1,.47.27,4.17,4.17,0,0,1,1.55,2.88A16,16,0,0,1,202.57,173.47Z"/><path class="cls-14" d="M179.55,158.81a1.85,1.85,0,0,0,.32,1.68,1.78,1.78,0,0,0,1.35.5c.49,0,1-.1,1.47-.12a1.4,1.4,0,1,0,2.4-.25,1.05,1.05,0,0,1-.21-.35.82.82,0,0,1,.23-.58c.9-1.31.43-4.07-1.48-4.19C182,155.41,179.87,157.33,179.55,158.81Z"/><path class="cls-14" d="M215.08,162.76a1.87,1.87,0,0,0,.77-1.78,3.83,3.83,0,0,0-.83-1.86,4.23,4.23,0,0,0-1.24-1.18,2,2,0,0,0-2.85,2.43C211.43,161.69,213.61,163.67,215.08,162.76Z"/><path class="cls-15" d="M18.17,185.72a3.54,3.54,0,0,1,0-.56s0,0,0,0,0-.06,0-.09l0-.19s0-.07,0-.1l0-.11,0-.12s0,0,0-.06l.08-.26h0c0-.08,0-.15.07-.22l.05-.1,0-.07,0-.05.1-.21s0,0,0-.05l0-.06a.41.41,0,0,0,.05-.09l.12-.21h0l0,0,.1-.16.08-.12,0-.06,0,0c0-.08.11-.15.17-.23v0l.07-.08.13-.15,0-.05.15-.16.1-.1,0,0a3.81,3.81,0,0,1,.43-.37l.09-.07a5.25,5.25,0,0,1,.49-.33l117.46-67.82a5.08,5.08,0,0,1,.47-.23l0,0,.12,0a1.43,1.43,0,0,1,.27-.09l.06,0,.14,0,.17,0,.06,0h.69l.19,0h.07l.09,0,.1,0,.13,0,.07,0h0l.23.11,0,0,2.5,1.45-.28-.14-.08,0-.23-.07-.09,0-.26,0h-.06a1.93,1.93,0,0,0-.34,0h-.11l-.24,0-.17,0-.2,0-.27.09-.16.06a5.08,5.08,0,0,0-.47.23L23.38,182.55a5.25,5.25,0,0,0-.49.33l-.09.07a3.89,3.89,0,0,0-.43.38l-.13.12-.15.17a1.63,1.63,0,0,0-.17.2l-.07.07-.21.29,0,.06-.18.29,0,0-.17.32,0,0c-.06.11-.1.21-.15.32l0,.06a2.08,2.08,0,0,0-.12.32h0l-.09.33,0,.11c0,.07,0,.14-.05.21l0,.19a.59.59,0,0,1,0,.14,3.62,3.62,0,0,0,0,.57v.08a3.7,3.7,0,0,0,.07.57l20.58,95.32a2.4,2.4,0,0,0,1.1,1.62l-2.5-1.46a2.1,2.1,0,0,1-.69-.64,2.64,2.64,0,0,1-.41-1L18.24,186.38a3.7,3.7,0,0,1-.07-.57Z"/><path class="cls-16" d="M141,120.74a1.28,1.28,0,0,1,.62-.18l-96,159.62,115.43-66.65a2,2,0,0,0,1-1.61,2,2,0,0,1-1,1.61L45.56,280.22c-.65.38-1.29.15-1.43-.49L24.58,189.29a1.9,1.9,0,0,1,.93-1.86Z"/><path class="cls-17" d="M164.23,212.19a3.35,3.35,0,0,1-1.65,3.29L45.11,283.3c-1.15.67-2.28.27-2.53-.88L22,187.1a3.33,3.33,0,0,1,1.65-3.29L141.11,116c1.16-.67,2.29-.27,2.53.88Zm-3.16,1.34a2,2,0,0,0,1-1.61l-19.58-90.68a.8.8,0,0,0-.81-.68,1.28,1.28,0,0,0-.62.18L25.51,187.43a1.9,1.9,0,0,0-.93,1.86l19.55,90.44c.14.64.78.87,1.43.49l115.51-66.69M82.58,150.84a1.68,1.68,0,0,0-.83,1.66c.12.58.69.77,1.27.44a1.68,1.68,0,0,0,.83-1.66c-.12-.58-.69-.78-1.27-.44"/><path class="cls-18" d="M142.45,121.24a.8.8,0,0,0-.81-.68l-96,159.62,115.43-66.65a2,2,0,0,0,.93-1.86Z"/><path class="cls-19" d="M82.58,150.84c.58-.34,1.15-.14,1.27.44a1.68,1.68,0,0,1-.83,1.66c-.58.33-1.15.14-1.27-.44A1.68,1.68,0,0,1,82.58,150.84Z"/><path class="cls-20" d="M165.49,211.46a5.36,5.36,0,0,1-2.64,5.27L45.38,284.55c-1.85,1.07-3.66.44-4.06-1.4L20.74,187.83a5.36,5.36,0,0,1,2.64-5.28l117.46-67.82c1.85-1.07,3.67-.43,4.06,1.41Zm-2.91,4a3.35,3.35,0,0,0,1.65-3.29l-20.59-95.32c-.24-1.15-1.37-1.55-2.53-.88L23.65,183.81A3.33,3.33,0,0,0,22,187.1l20.58,95.32c.25,1.15,1.38,1.55,2.53.88l117.47-67.82"/><path class="cls-21" d="M163.92,215.42a7.33,7.33,0,0,1,6.67,0l78,45.47c1.84,1.07,1.83,2.8,0,3.86L131.14,332.57a7.38,7.38,0,0,1-6.68,0l-78-45.47c-1.84-1.07-1.83-2.8,0-3.87ZM125.73,331.85a4.64,4.64,0,0,0,4.17,0L247.36,264a1.28,1.28,0,0,0,0-2.42l-78-45.46a4.56,4.56,0,0,0-4.16,0L47.7,284a1.27,1.27,0,0,0,0,2.41l78,45.47"/><path class="cls-22" d="M58.88,286.11a1.19,1.19,0,0,0,0,2.25L104,314.63a4.32,4.32,0,0,0,3.9,0L219.74,250a1.19,1.19,0,0,0,0-2.25l-45.1-26.27a4.3,4.3,0,0,0-3.89,0Z"/><path class="cls-23" d="M219.75,249.08l-45.1-26.27a4.3,4.3,0,0,0-3.89,0L58.88,287.4a2,2,0,0,0-.57.49c-.45-.59-.26-1.3.57-1.78l111.88-64.59a4.3,4.3,0,0,1,3.89,0l45.1,26.27c.82.48,1,1.18.56,1.77A2.07,2.07,0,0,0,219.75,249.08Z"/><path class="cls-24" d="M165.17,216.15a4.56,4.56,0,0,1,4.16,0l78,45.46a1.28,1.28,0,0,1,0,2.42L129.89,331.85a4.62,4.62,0,0,1-4.16,0l-78-45.47a1.27,1.27,0,0,1,0-2.41ZM104,314.63a4.32,4.32,0,0,0,3.9,0L219.74,250a1.19,1.19,0,0,0,0-2.25l-45.1-26.27a4.3,4.3,0,0,0-3.89,0L58.88,286.11a1.19,1.19,0,0,0,0,2.25L104,314.63M169,303.92a3.9,3.9,0,0,0,3.49,0L201,287.45a1.07,1.07,0,0,0,0-2L184.87,276a3.88,3.88,0,0,0-3.48,0L152.86,292.5a1.07,1.07,0,0,0,0,2l16.17,9.4"/><path class="cls-25" d="M152.86,292.5a1.07,1.07,0,0,0,0,2l16.17,9.4a3.9,3.9,0,0,0,3.49,0L201,287.45a1.07,1.07,0,0,0,0-2L184.87,276a3.88,3.88,0,0,0-3.48,0Z"/><path class="cls-15" d="M46.36,287.1l78.07,45.49a7.38,7.38,0,0,0,6.68,0l117.5-67.84a2.36,2.36,0,0,0,1.4-1.94v4.33a2.38,2.38,0,0,1-1.4,1.95l-117.5,67.84a7.35,7.35,0,0,1-6.68,0L46.38,291.44A2.32,2.32,0,0,1,45,289.52l0-4.33A2.34,2.34,0,0,0,46.36,287.1Z"/><path class="cls-26" d="M164,228.71a.46.46,0,0,0,0,.87l1.88,1.09a1.65,1.65,0,0,0,1.5,0l9.91-5.72a.46.46,0,0,0,0-.87L175.45,223a1.62,1.62,0,0,0-1.5,0Z"/><path class="cls-26" d="M156.1,233.29a.4.4,0,0,0,0,.76l2.06,1.2a1.46,1.46,0,0,0,1.32,0l5.67-3.27a.4.4,0,0,0,0-.76l-2.06-1.2a1.46,1.46,0,0,0-1.32,0Z"/><path class="cls-26" d="M148.17,237.87a.4.4,0,0,0,0,.76l2.06,1.2a1.46,1.46,0,0,0,1.32,0l5.66-3.27a.41.41,0,0,0,0-.77l-2.06-1.19a1.4,1.4,0,0,0-1.32,0Z"/><path class="cls-26" d="M140.24,242.44a.41.41,0,0,0,0,.77l2.06,1.2a1.46,1.46,0,0,0,1.32,0l5.66-3.27a.41.41,0,0,0,0-.77l-2.07-1.2a1.44,1.44,0,0,0-1.31,0Z"/><path class="cls-26" d="M132.31,247a.41.41,0,0,0,0,.77l2.06,1.2a1.46,1.46,0,0,0,1.32,0l5.66-3.28c.37-.21.37-.55,0-.76l-2.07-1.2a1.44,1.44,0,0,0-1.31,0Z"/><path class="cls-26" d="M124.38,251.6a.41.41,0,0,0,0,.77l2.06,1.19a1.4,1.4,0,0,0,1.32,0l5.66-3.27c.37-.21.37-.55,0-.76l-2.07-1.2a1.44,1.44,0,0,0-1.31,0Z"/><path class="cls-26" d="M116.45,256.18c-.36.21-.37.55,0,.76l2.06,1.2a1.46,1.46,0,0,0,1.32,0l5.66-3.27c.37-.21.37-.55,0-.76l-2.07-1.2a1.44,1.44,0,0,0-1.31,0Z"/><path class="cls-26" d="M108.52,260.76c-.36.21-.37.55,0,.76l2.06,1.2a1.46,1.46,0,0,0,1.32,0l5.66-3.27c.37-.21.37-.55,0-.76l-2.07-1.2a1.44,1.44,0,0,0-1.31,0Z"/><path class="cls-26" d="M100.59,265.34c-.36.21-.37.55,0,.76l2.06,1.2a1.46,1.46,0,0,0,1.32,0l5.66-3.27c.37-.21.37-.55,0-.76l-2.07-1.2a1.46,1.46,0,0,0-1.32,0Z"/><path class="cls-26" d="M92.66,269.92c-.37.21-.37.55,0,.76l2.06,1.2a1.46,1.46,0,0,0,1.32,0l5.66-3.27c.37-.21.37-.55,0-.76l-2.06-1.2a1.44,1.44,0,0,0-1.31,0Z"/><path class="cls-26" d="M84.73,274.5c-.37.21-.37.55,0,.76l2.06,1.2a1.46,1.46,0,0,0,1.32,0l5.66-3.27a.41.41,0,0,0,0-.77l-2.07-1.2a1.46,1.46,0,0,0-1.32,0Z"/><path class="cls-26" d="M76.8,279.07a.41.41,0,0,0,0,.77l2.07,1.2a1.46,1.46,0,0,0,1.32,0l5.66-3.27c.37-.22.37-.56,0-.77l-2.06-1.2a1.46,1.46,0,0,0-1.32,0Z"/><path class="cls-26" d="M68.87,283.65a.41.41,0,0,0,0,.77l2.07,1.2a1.44,1.44,0,0,0,1.31,0l5.67-3.28c.36-.21.37-.55,0-.76l-2.06-1.2a1.46,1.46,0,0,0-1.32,0Z"/><path class="cls-26" d="M60.94,288.23c-.37.21-.37.55,0,.76l2.07,1.2a1.44,1.44,0,0,0,1.31,0L70,286.92c.36-.21.37-.55,0-.76L67.92,285a1.46,1.46,0,0,0-1.32,0Z"/><path class="cls-26" d="M172.29,228.72c-.56.33-.56.85,0,1.17l5.31,3.08a2.21,2.21,0,0,0,2,0l5.33-3.09a.62.62,0,0,0,0-1.17l-5.3-3.08a2.25,2.25,0,0,0-2,0Z"/><path class="cls-26" d="M164.27,233.36a.62.62,0,0,0,0,1.17l5.3,3.08a2.25,2.25,0,0,0,2,0l5.34-3.08c.56-.33.56-.85,0-1.17l-5.31-3.09a2.25,2.25,0,0,0-2,0Z"/><path class="cls-26" d="M176.67,235.54a.73.73,0,0,0,0,1.38l4.93,2.87a2.65,2.65,0,0,0,2.39,0l8.83-5.1a.73.73,0,0,0,0-1.39l-4.93-2.86a2.65,2.65,0,0,0-2.39,0Z"/><path class="cls-26" d="M156.15,238.05c-.56.32-.57.84,0,1.16l5.3,3.09a2.25,2.25,0,0,0,2,0l5.34-3.09a.62.62,0,0,0,0-1.17L163.5,235a2.25,2.25,0,0,0-2,0Z"/><path class="cls-26" d="M168.65,240.17a.73.73,0,0,0,0,1.39l4.93,2.86a2.62,2.62,0,0,0,2.39,0l5-2.86a.74.74,0,0,0,0-1.39L176,237.31a2.61,2.61,0,0,0-2.4,0Z"/><path class="cls-26" d="M182.52,241.51a.59.59,0,0,0,0,1.11l5.39,3.14a2.12,2.12,0,0,0,1.93,0l11.29-6.52a.59.59,0,0,0,0-1.11l-5.4-3.14a2.1,2.1,0,0,0-1.92,0Z"/><path class="cls-26" d="M148,242.73c-.56.33-.57.85,0,1.17l5.3,3.08a2.18,2.18,0,0,0,2,0l5.34-3.08a.62.62,0,0,0,0-1.17l-5.31-3.08a2.22,2.22,0,0,0-2,0Z"/><path class="cls-26" d="M160.53,244.86c-.66.38-.67,1,0,1.38l4.93,2.87a2.67,2.67,0,0,0,2.4,0l5-2.86a.74.74,0,0,0,0-1.39L167.89,242a2.67,2.67,0,0,0-2.4,0Z"/><path class="cls-26" d="M174.12,246.36a.59.59,0,0,0,0,1.11l5.4,3.14a2.12,2.12,0,0,0,1.93,0l5.43-3.14a.59.59,0,0,0,0-1.11l-5.4-3.14a2.12,2.12,0,0,0-1.93,0Z"/><path class="cls-26" d="M186.86,248.35a.68.68,0,0,0,0,1.28l5.12,3a2.44,2.44,0,0,0,2.2,0L209.05,244a.68.68,0,0,0,0-1.28l-5.12-3a2.46,2.46,0,0,0-2.21,0Z"/><path class="cls-26" d="M204.77,247.35a.75.75,0,0,0,0,1.42l4.88,2.83a2.71,2.71,0,0,0,2.45,0l4.91-2.83a.75.75,0,0,0,0-1.42l-4.87-2.83a2.68,2.68,0,0,0-2.45,0Z"/><path class="cls-26" d="M196.75,252c-.68.4-.69,1,0,1.42l4.87,2.84a2.71,2.71,0,0,0,2.45,0L209,253.4a.75.75,0,0,0,0-1.42l-4.88-2.83a2.69,2.69,0,0,0-2.44,0Z"/><path class="cls-26" d="M139.91,247.42c-.56.32-.57.85,0,1.17l5.3,3.08a2.25,2.25,0,0,0,2,0l5.34-3.08a.62.62,0,0,0,0-1.17l-5.31-3.08a2.16,2.16,0,0,0-2,0Z"/><path class="cls-26" d="M152.41,249.55c-.66.38-.67,1,0,1.38l4.93,2.87a2.67,2.67,0,0,0,2.4,0l5-2.87a.73.73,0,0,0,0-1.38l-4.93-2.87a2.67,2.67,0,0,0-2.4,0Z"/><path class="cls-26" d="M166,251c-.53.31-.54.81,0,1.12l5.4,3.14a2.15,2.15,0,0,0,1.93,0l5.43-3.14a.59.59,0,0,0,0-1.11l-5.4-3.14a2.12,2.12,0,0,0-1.93,0Z"/><path class="cls-26" d="M178.46,253.2a.67.67,0,0,0,0,1.28l5.12,3a2.44,2.44,0,0,0,2.2,0l5.15-3c.61-.36.62-.93,0-1.28l-5.12-3a2.44,2.44,0,0,0-2.2,0Z"/><path class="cls-26" d="M188.72,256.62a.74.74,0,0,0,0,1.41l4.88,2.84a2.71,2.71,0,0,0,2.45,0L201,258a.74.74,0,0,0,0-1.41l-4.87-2.84a2.71,2.71,0,0,0-2.45,0Z"/><path class="cls-26" d="M131.79,252.11a.62.62,0,0,0,0,1.17l5.3,3.08a2.25,2.25,0,0,0,2,0l5.34-3.08c.56-.33.57-.85,0-1.17L139.14,249a2.19,2.19,0,0,0-2,0Z"/><path class="cls-26" d="M144.29,254.23c-.66.39-.67,1,0,1.39l4.93,2.87a2.67,2.67,0,0,0,2.4,0l5-2.87a.74.74,0,0,0,0-1.39l-4.93-2.86a2.67,2.67,0,0,0-2.4,0Z"/><path class="cls-26" d="M157.88,255.73c-.53.31-.54.81,0,1.12l5.4,3.13a2.12,2.12,0,0,0,1.93,0l5.43-3.13c.53-.31.54-.81,0-1.12l-5.4-3.13a2.15,2.15,0,0,0-1.93,0Z"/><path class="cls-26" d="M170.34,257.89c-.61.35-.62.92,0,1.27l5.12,3a2.44,2.44,0,0,0,2.2,0l5.15-3c.61-.35.62-.92,0-1.27l-5.12-3a2.44,2.44,0,0,0-2.2,0Z"/><path class="cls-26" d="M180.7,261.25c-.68.39-.69,1,0,1.42l4.88,2.83a2.69,2.69,0,0,0,2.44,0l4.91-2.83a.75.75,0,0,0,0-1.42l-4.88-2.83a2.63,2.63,0,0,0-2.44,0Z"/><path class="cls-26" d="M123.67,256.8c-.56.32-.57.84,0,1.16l5.3,3.09a2.25,2.25,0,0,0,2,0l5.34-3.09c.56-.32.57-.84,0-1.16l-5.3-3.09a2.25,2.25,0,0,0-2,0Z"/><path class="cls-26" d="M136.17,258.92a.74.74,0,0,0,0,1.39l4.93,2.86a2.61,2.61,0,0,0,2.4,0l5-2.86a.74.74,0,0,0,0-1.39l-4.93-2.86a2.61,2.61,0,0,0-2.4,0Z"/><path class="cls-26" d="M115.55,261.48c-.56.33-.56.85,0,1.17l5.31,3.08a2.19,2.19,0,0,0,2,0l5.34-3.09a.62.62,0,0,0,0-1.17l-5.3-3.08a2.25,2.25,0,0,0-2,0Z"/><path class="cls-26" d="M128.05,263.61a.74.74,0,0,0,0,1.39l4.93,2.86a2.67,2.67,0,0,0,2.4,0l5-2.86c.67-.39.67-1,0-1.39l-4.93-2.87a2.67,2.67,0,0,0-2.4,0Z"/><path class="cls-26" d="M149.76,260.42c-.53.31-.54.81,0,1.12l5.4,3.13a2.12,2.12,0,0,0,1.93,0l5.43-3.13c.53-.31.54-.81,0-1.12l-5.4-3.14a2.13,2.13,0,0,0-1.92,0Z"/><path class="cls-26" d="M141.64,265.11a.59.59,0,0,0,0,1.11l5.4,3.14a2.1,2.1,0,0,0,1.92,0l5.43-3.14c.54-.31.54-.8,0-1.11L149,262a2.1,2.1,0,0,0-1.92,0Z"/><path class="cls-26" d="M107.43,266.17a.62.62,0,0,0,0,1.17l5.31,3.08a2.19,2.19,0,0,0,2,0l5.35-3.08a.62.62,0,0,0,0-1.17l-5.3-3.08a2.25,2.25,0,0,0-2,0Z"/><path class="cls-26" d="M119.93,268.3a.73.73,0,0,0,0,1.38l4.93,2.87a2.65,2.65,0,0,0,2.39,0l5-2.87a.73.73,0,0,0,0-1.38l-4.93-2.87a2.67,2.67,0,0,0-2.4,0Z"/><path class="cls-26" d="M133.52,269.8a.59.59,0,0,0,0,1.11l5.4,3.14a2.13,2.13,0,0,0,1.92,0l5.43-3.14c.54-.31.54-.81,0-1.11l-5.4-3.14a2.1,2.1,0,0,0-1.92,0Z"/><path class="cls-26" d="M99.31,270.86a.62.62,0,0,0,0,1.17l5.31,3.08a2.25,2.25,0,0,0,2,0L112,272c.56-.33.56-.85,0-1.17l-5.3-3.08a2.18,2.18,0,0,0-2,0Z"/><path class="cls-26" d="M111.81,273a.74.74,0,0,0,0,1.39l4.93,2.87a2.65,2.65,0,0,0,2.39,0l5-2.87a.73.73,0,0,0,0-1.39l-4.93-2.86a2.65,2.65,0,0,0-2.39,0Z"/><path class="cls-26" d="M125.4,274.48a.59.59,0,0,0,0,1.12l5.4,3.14a2.16,2.16,0,0,0,1.92,0l5.43-3.14a.59.59,0,0,0,0-1.12l-5.4-3.13a2.1,2.1,0,0,0-1.92,0Z"/><path class="cls-26" d="M162.22,262.57c-.61.36-.62.93,0,1.28l5.12,3a2.44,2.44,0,0,0,2.2,0l5.15-3a.67.67,0,0,0,0-1.28l-5.12-3a2.44,2.44,0,0,0-2.2,0Z"/><path class="cls-26" d="M154.1,267.26a.68.68,0,0,0,0,1.28l5.12,3a2.38,2.38,0,0,0,2.2,0l5.16-3a.68.68,0,0,0,0-1.28l-5.11-3a2.4,2.4,0,0,0-2.21,0Z"/><path class="cls-26" d="M146,272a.68.68,0,0,0,0,1.28l5.12,3a2.44,2.44,0,0,0,2.2,0l5.16-3a.68.68,0,0,0,0-1.28l-5.11-3a2.4,2.4,0,0,0-2.21,0Z"/><path class="cls-26" d="M137.86,276.64c-.61.35-.62.92,0,1.27l5.12,3a2.46,2.46,0,0,0,2.21,0l5.15-3a.67.67,0,0,0,0-1.27l-5.11-3a2.46,2.46,0,0,0-2.21,0Z"/><path class="cls-26" d="M91.19,275.55a.62.62,0,0,0,0,1.17l5.31,3.08a2.25,2.25,0,0,0,2,0l5.34-3.08c.56-.33.56-.85,0-1.17l-5.3-3.09a2.25,2.25,0,0,0-2,0Z"/><path class="cls-26" d="M103.69,277.67a.74.74,0,0,0,0,1.39l4.93,2.86a2.59,2.59,0,0,0,2.39,0l5-2.86a.73.73,0,0,0,0-1.39l-4.93-2.86a2.59,2.59,0,0,0-2.39,0Z"/><path class="cls-26" d="M117.28,279.17a.59.59,0,0,0,0,1.12l5.4,3.13a2.1,2.1,0,0,0,1.92,0l5.44-3.13a.59.59,0,0,0,0-1.12l-5.4-3.14a2.16,2.16,0,0,0-1.92,0Z"/><path class="cls-26" d="M129.74,281.32c-.61.36-.61.93,0,1.28l5.12,3a2.46,2.46,0,0,0,2.21,0l5.15-3a.68.68,0,0,0,0-1.28l-5.12-3a2.46,2.46,0,0,0-2.21,0Z"/><path class="cls-26" d="M139.16,285.23c-.68.4-.69,1,0,1.42l4.87,2.84a2.71,2.71,0,0,0,2.45,0L184.9,267.3a.75.75,0,0,0,0-1.42L180,263.05a2.71,2.71,0,0,0-2.45,0Z"/><path class="cls-26" d="M83.07,280.23c-.56.33-.56.85,0,1.17l5.3,3.08a2.21,2.21,0,0,0,2,0l5.34-3.09c.56-.32.56-.84,0-1.17l-5.3-3.08a2.25,2.25,0,0,0-2,0Z"/><path class="cls-26" d="M95.57,282.36a.74.74,0,0,0,0,1.39l4.93,2.86a2.65,2.65,0,0,0,2.39,0l5-2.86c.67-.39.67-1,0-1.39l-4.93-2.87a2.65,2.65,0,0,0-2.39,0Z"/><path class="cls-26" d="M109.16,283.86a.59.59,0,0,0,0,1.11l5.4,3.14a2.1,2.1,0,0,0,1.92,0l5.44-3.14a.59.59,0,0,0,0-1.11l-5.4-3.14a2.1,2.1,0,0,0-1.92,0Z"/><path class="cls-26" d="M121.62,286a.68.68,0,0,0,0,1.28l5.12,3a2.4,2.4,0,0,0,2.21,0l5.15-3a.68.68,0,0,0,0-1.28L129,283a2.43,2.43,0,0,0-2.21,0Z"/><path class="cls-26" d="M129.81,290.63a.75.75,0,0,0,0,1.42l4.88,2.83a2.71,2.71,0,0,0,2.45,0l6.13-3.54a.75.75,0,0,0,0-1.42l-4.88-2.83a2.69,2.69,0,0,0-2.44,0Z"/><path class="cls-26" d="M75,284.92c-.56.33-.56.85,0,1.17l5.3,3.08a2.18,2.18,0,0,0,2,0l5.34-3.08a.62.62,0,0,0,0-1.17l-5.3-3.08a2.25,2.25,0,0,0-2,0Z"/><path class="cls-26" d="M87.45,287.05a.73.73,0,0,0,0,1.38l4.93,2.87a2.65,2.65,0,0,0,2.39,0l5-2.87a.73.73,0,0,0,0-1.38l-4.93-2.87a2.65,2.65,0,0,0-2.39,0Z"/><path class="cls-26" d="M101,288.55a.59.59,0,0,0,0,1.11l5.4,3.14a2.1,2.1,0,0,0,1.92,0l5.44-3.14a.59.59,0,0,0,0-1.11l-5.4-3.14a2.1,2.1,0,0,0-1.92,0Z"/><path class="cls-26" d="M113.5,290.7a.68.68,0,0,0,0,1.28l5.11,3a2.46,2.46,0,0,0,2.21,0l5.15-3c.61-.36.61-.93,0-1.28l-5.12-3a2.4,2.4,0,0,0-2.21,0Z"/><path class="cls-26" d="M121.5,295.43a.74.74,0,0,0,0,1.41l4.88,2.84a2.71,2.71,0,0,0,2.45,0l4.91-2.84a.74.74,0,0,0,0-1.41l-4.87-2.84a2.71,2.71,0,0,0-2.45,0Z"/><path class="cls-26" d="M65.42,290.43a.62.62,0,0,0,0,1.17l5.31,3.08a2.22,2.22,0,0,0,2,0l6.76-3.9a.62.62,0,0,0,0-1.17l-5.3-3.08a2.18,2.18,0,0,0-2,0Z"/><path class="cls-26" d="M73.67,295a.73.73,0,0,0,0,1.38l4.93,2.87a2.67,2.67,0,0,0,2.4,0L91.8,293a.73.73,0,0,0,0-1.38l-4.93-2.87a2.65,2.65,0,0,0-2.39,0Z"/><path class="cls-26" d="M81.5,299.83a.59.59,0,0,0,0,1.11l5.4,3.14a2.1,2.1,0,0,0,1.92,0l16.67-9.62a.59.59,0,0,0,0-1.12l-5.4-3.13a2.1,2.1,0,0,0-1.92,0Z"/><path class="cls-26" d="M89.71,304.44a.67.67,0,0,0,0,1.27l5.12,3a2.46,2.46,0,0,0,2.21,0l20.82-12a.67.67,0,0,0,0-1.27l-5.12-3a2.46,2.46,0,0,0-2.21,0Z"/><path class="cls-26" d="M113.57,300a.74.74,0,0,0,0,1.41l4.88,2.84a2.71,2.71,0,0,0,2.45,0l4.91-2.84a.74.74,0,0,0,0-1.41l-4.87-2.84a2.71,2.71,0,0,0-2.45,0Z"/><path class="cls-26" d="M105.64,304.58c-.68.4-.68,1,0,1.42l4.88,2.84a2.69,2.69,0,0,0,2.44,0l4.91-2.84a.75.75,0,0,0,0-1.42L113,301.75a2.71,2.71,0,0,0-2.45,0Z"/><path class="cls-26" d="M97.71,309.16a.75.75,0,0,0,0,1.42l4.88,2.83a2.65,2.65,0,0,0,2.45,0l4.91-2.83a.75.75,0,0,0,0-1.42l-4.87-2.83a2.71,2.71,0,0,0-2.45,0Z"/><path class="cls-27" d="M69.12,270a.23.23,0,0,0,0,.44l3.4,2a2.1,2.1,0,0,0,1.89,0l74.08-42.77a1.26,1.26,0,0,0,0-2.39l-2.28-1.33a.85.85,0,0,0-.76,0Z"/><path class="cls-28" d="M148.68,228.76a2.13,2.13,0,0,0,.63-.53,1.33,1.33,0,0,1-.82,1.42L74.41,272.42a2.09,2.09,0,0,1-1.56.12Z"/><path class="cls-29" d="M113.12,396.5a18.84,18.84,0,0,1-8.66-2.09L90.21,387a16.11,16.11,0,0,1-.53-28.85l3.08-1.73a14,14,0,0,0-.55-25.13,16.59,16.59,0,0,0-15.32.24L47.51,347.7a18.93,18.93,0,0,1-18.22-.05l-8.06-4.48a16.1,16.1,0,0,1,.15-28.69l36.1-19.65a1.22,1.22,0,0,1,1.6.39,1.05,1.05,0,0,1-.42,1.49l-36.1,19.65a14,14,0,0,0-.13,24.94l8.06,4.49a16.5,16.5,0,0,0,15.84,0l29.38-16.14a19.08,19.08,0,0,1,17.62-.27A16.12,16.12,0,0,1,94,358.33l-3.08,1.72a14,14,0,0,0,.46,25.08l14.25,7.37a16.47,16.47,0,0,0,15.93-.48l27.14-16.28a18.87,18.87,0,0,1,18.67-.37l5,2.71a16.39,16.39,0,0,0,17.32-1l9.88-7.1a1.21,1.21,0,0,1,1.63.2,1,1,0,0,1-.21,1.53l-9.87,7.1A18.87,18.87,0,0,1,171.13,380l-5-2.71a16.42,16.42,0,0,0-16.24.32l-27.14,16.28A18.81,18.81,0,0,1,113.12,396.5Z"/><path class="cls-30" d="M246.43,336.06c-3.65-1.74-7-1.76-9.34-.37l-1.86,1-.21.1-3,1.56-23.32-11.25c-13.59-6.55-35.76-5.44-49.44,2.47-7.08,4.1-10.51,9.22-10.29,14.13,0-.14,0-.28,0-.41v8.81c0,4.72,3.4,9.26,10.15,12.51l17.55,8.47a10.89,10.89,0,0,0-1,4.75c0,7.62,5.83,16.61,13.08,20.08,3.87,1.86,7.35,1.74,9.76.08a4,4,0,0,1-.43.29l1.24-.72a4,4,0,0,0,.34-.23,5.57,5.57,0,0,0,.57-.37c-.14.1-.27.21-.42.3l2.33-1.36.19-.12,0,0-.09.07,8.53-5c2.35-1.37,3.81-4.11,3.83-7.89,0-7.63-5.83-16.62-13.08-20.09-3.65-1.74-7-1.76-9.34-.37L188,365s-.09,0-.14.07l-.18.11L163.2,353.4a16.2,16.2,0,0,1-7.26-6.12,18.89,18.89,0,0,1,7.41-7c11.42-6.61,29.94-7.53,41.28-2.06L220,345.68a9.79,9.79,0,0,0-1.89,6.18c0,7.62,5.83,16.62,13.07,20.08,3.88,1.86,7.36,1.74,9.77.08-.15.1-.28.21-.43.3l5.84-3.39-.11.08,2.73-1.45,0,0,6.72-3.55c2.35-1.37,3.81-4.1,3.83-7.89C259.53,348.52,253.68,339.53,246.43,336.06Z"/><g class="cls-31"><path class="cls-32" d="M235,347.48l0-5.9-25.53-14.84c-10.33-6-27.21-6-37.62,0-5.23,3-7.85,7-7.83,11v2.68a1.33,1.33,0,0,0,0,.2v5.9c0-4,2.61-7.95,7.84-11,10.4-6,27.28-6,37.62,0L235,350.35v-2.87Z"/><path class="cls-33" d="M200.25,326.59a2.82,2.82,0,0,0-2.36-2.79c-8.95-1.42-19-.11-26,4-5.26,3-7.89,7-7.87,11v2.69a1.33,1.33,0,0,0,0,.2v2.61c.08-3.92,2.7-7.84,7.87-10.82,6.84-3.95,16.45-5.31,25.2-4.08a2.81,2.81,0,0,0,3.17-2.79Z"/><path class="cls-34" d="M200.25,327.71a2.82,2.82,0,0,0-2.36-2.79c-8.95-1.43-19-.11-26,4-5.26,3-7.89,7-7.87,11v5.5c.08-3.92,2.7-7.84,7.87-10.82,6.84-3.95,16.45-5.31,25.2-4.08a2.81,2.81,0,0,0,3.17-2.79Z"/><path class="cls-32" d="M193,371.63l0-5.95-25.67-14.91c-6.2-3.6-9.3-8.33-9.31-13.06v8.84c0,4.73,3.12,9.46,9.31,13.06L193,374.53v-2.9Z"/><path class="cls-35" d="M167.78,324.56c-12.52,7.23-12.59,19-.15,26.22l25.6,14.88,3.75-2.17-25.64-14.9c-10.38-6-10.33-15.85.12-21.89s27.41-6,37.79,0l25.64,14.9,3.75-2.16L213,324.56C200.61,317.33,180.3,317.33,167.78,324.56Z"/></g><path class="cls-36" d="M206.52,360c-3.34-1.92-6.37-2.1-8.55-.83l-7.81,4.54c2.18-1.27,5.2-1.09,8.54.84,6.64,3.83,12,13.11,12,20.73,0,3.79-1.34,6.45-3.5,7.71l7.81-4.54c2.16-1.26,3.5-3.92,3.51-7.71C218.51,373.1,213.15,363.82,206.52,360Z"/><path class="cls-36" d="M198.7,364.53c6.64,3.83,12,13.11,12,20.73s-5.41,10.7-12,6.87-12-13.12-12-20.74S192.07,360.7,198.7,364.53Z"/><path class="cls-35" d="M202.44,362.34c-3.34-1.93-6.36-2.11-8.55-.84l-6,3.49c2.18-1.27,5.21-1.09,8.54.84,6.64,3.83,12,13.11,12,20.73,0,3.79-1.35,6.46-3.51,7.71l6-3.49c2.16-1.25,3.49-3.92,3.5-7.71C214.43,375.45,209.08,366.17,202.44,362.34Z"/><path class="cls-37" d="M196.44,365.83c6.64,3.83,12,13.11,12,20.73s-5.42,10.7-12,6.87-12-13.11-12-20.73S189.81,362,196.44,365.83Z"/><path class="cls-35" d="M196,366.11c-3.34-1.92-6.36-2.1-8.55-.83l-1.13.66c2.18-1.27,5.2-1.09,8.54.83,6.64,3.83,12,13.12,12,20.74,0,3.79-1.34,6.45-3.5,7.7l1.14-.66c2.15-1.25,3.49-3.91,3.5-7.7C208,379.23,202.63,369.94,196,366.11Z"/><path class="cls-32" d="M194.86,366.77c6.64,3.83,12,13.12,12,20.74s-5.41,10.7-12.05,6.87-12-13.12-12-20.74S188.23,362.94,194.86,366.77Z"/><path class="cls-35" d="M247.54,335.41c-3.34-1.93-6.36-2.1-8.55-.83l-6.15,3.21c2.18-1.27,5.21-1.09,8.54.84,6.64,3.83,12,13.11,12,20.73,0,3.79-1.35,6.45-3.51,7.71l6.16-3.22c2.15-1.25,3.49-3.92,3.5-7.7C259.53,348.53,254.17,339.24,247.54,335.41Z"/><path class="cls-37" d="M245.64,336.39c-3.33-1.92-6.36-2.1-8.54-.83l-6.16,3.21c2.19-1.27,5.21-1.09,8.55.84,6.63,3.83,12,13.11,12,20.73,0,3.79-1.35,6.46-3.5,7.71l6.15-3.22c2.16-1.25,3.5-3.91,3.51-7.7C257.64,349.51,252.28,340.22,245.64,336.39Z"/><path class="cls-35" d="M245.08,336.69c-3.34-1.93-6.37-2.11-8.55-.84l-6.16,3.22c2.19-1.27,5.21-1.09,8.55.84,6.64,3.83,12,13.11,12,20.73,0,3.79-1.34,6.45-3.5,7.71l6.15-3.22c2.16-1.25,3.5-3.92,3.51-7.7C257.07,349.8,251.71,340.52,245.08,336.69Z"/><path class="cls-36" d="M239.23,339.71c-3.33-1.92-6.36-2.1-8.54-.83l-5.56,3.21c2.19-1.27,5.21-1.09,8.55.84,6.63,3.83,12,13.11,12,20.73,0,3.79-1.35,6.46-3.5,7.71l5.55-3.22c2.16-1.25,3.5-3.91,3.51-7.7C251.23,352.83,245.87,343.54,239.23,339.71Z"/><path class="cls-38" d="M233.68,342.93c6.63,3.83,12,13.11,12,20.73s-5.42,10.7-12.05,6.87-12-13.11-12-20.74S227,339.1,233.68,342.93Z"/><path class="cls-39" d="M233.67,346.6c4.87,2.81,8.8,9.63,8.79,15.22s-4,7.86-8.85,5-8.81-9.63-8.79-15.22S228.8,343.78,233.67,346.6Z"/><path class="cls-29" d="M233.66,349a14.75,14.75,0,0,1,6.69,11.6c0,4.26-3,6-6.73,3.84a14.77,14.77,0,0,1-6.7-11.6C226.94,348.59,230,346.87,233.66,349Z"/><g class="cls-3"><polygon class="cls-40" points="326.8 162.61 239.51 213.33 215.48 199.46 302.77 148.73 326.8 162.61"/></g><g class="cls-31"><polygon class="cls-41" points="266.4 56.96 343 12.44 342.61 153.22 266 197.73 266.4 56.96"/><polygon class="cls-41" points="243.71 44.25 321 0.66 321 6.97 266.21 57.24 243.71 44.25"/><polygon class="cls-42" points="321.33 0.66 245.18 44.91 244.03 44.25 320.18 0 321.33 0.66"/><polygon class="cls-43" points="267 56.97 266.61 197.52 244 184.47 244.4 43.92 267 56.97"/><polygon class="cls-44" points="340.37 14.34 266.53 57.24 246.21 45.51 320.04 2.6 340.37 14.34"/><polygon class="cls-42" points="245.59 43.35 244.03 44.25 266.54 57.24 268.09 56.34 245.59 43.35"/><polygon class="cls-42" points="265.43 56.61 266.54 57.24 342.68 12.99 341.58 12.36 265.43 56.61"/></g><polygon class="cls-45" points="248 58.23 248 62.76 260 69.69 260.02 65.17 248 58.23"/><g class="cls-31"><polygon class="cls-46" points="249 92.65 260 99 260.02 94.44 249 88.08 249 92.65"/><polygon class="cls-46" points="249 98.9 260 105.25 260.02 100.69 249 94.33 249 98.9"/><polygon class="cls-46" points="248 86.31 260 93.24 260.02 88.27 248 81.33 248 86.31"/><polygon class="cls-46" points="249 105.36 260 111.71 260.02 106.94 249 100.58 249 105.36"/><polygon class="cls-46" points="248 80.05 260 86.98 260.02 82.02 248 75.09 248 80.05"/><polygon class="cls-46" points="248 53.6 248 58.4 260 65.33 260.02 60.54 248 53.6"/><polygon class="cls-46" points="248 73.8 260 80.72 260.02 75.77 248 68.83 248 73.8"/><polygon class="cls-46" points="248 67.54 260 74.47 260.02 69.52 248 62.59 248 67.54"/></g><path class="cls-47" d="M253.73,159.13a16.47,16.47,0,0,1,7.47,12.94c0,4.75-3.38,6.67-7.52,4.28a16.44,16.44,0,0,1-7.47-12.94C246.22,158.66,249.59,156.74,253.73,159.13Zm0,15.82c3.47,2,6.28.39,6.29-3.59a13.75,13.75,0,0,0-6.25-10.82c-3.46-2-6.27-.39-6.29,3.58A13.79,13.79,0,0,0,253.68,175"/><path class="cls-48" d="M253.72,160.54A13.75,13.75,0,0,1,260,171.36c0,4-2.82,5.59-6.29,3.59a13.79,13.79,0,0,1-6.25-10.83C247.45,160.15,250.26,158.54,253.72,160.54Z"/><path class="cls-49" d="M254.91,175a13.77,13.77,0,0,1-6.25-10.83c0-2.53,1.15-4.09,2.87-4.39-2.38-.35-4.09,1.3-4.1,4.39A13.79,13.79,0,0,0,253.68,175a5.16,5.16,0,0,0,3.42.8A6.11,6.11,0,0,1,254.91,175Z"/><path class="cls-50" d="M294,93.23v3.38a2.05,2.05,0,0,1-.94,1.63L273,109.86c-.52.3-.94,0-.94-.55v-3.37a2.07,2.07,0,0,1,.94-1.64l20.12-11.61C293.58,92.39,294,92.63,294,93.23Zm-1,3.25V94.22c0-.28-.2-.4-.44-.26l-19.12,11a.94.94,0,0,0-.43.76v2.57c0,.28.2.39.44.25l19.12-11a1,1,0,0,0,.44-.75"/><path class="cls-51" d="M293,94.21v2.57a1,1,0,0,1-.43.76l-19.13,11c-.25.14-.44,0-.44-.26v-2.57a1,1,0,0,1,.43-.76l19.14-11C292.81,93.82,293,93.93,293,94.21Z"/><path class="cls-50" d="M294,121.3v3.37a2.07,2.07,0,0,1-.94,1.64L273,137.93c-.52.3-.94,0-.94-.55V134a2.07,2.07,0,0,1,.94-1.64l20.12-11.62C293.58,120.45,294,120.7,294,121.3Zm-1,3.18v-2.19c0-.28-.2-.4-.44-.26l-19.12,11a.94.94,0,0,0-.43.76v2.56c0,.28.2.4.44.26l19.12-11a1,1,0,0,0,.44-.75"/><path class="cls-51" d="M293,122.28v2.57a1,1,0,0,1-.44.76l-19.13,11c-.24.14-.43,0-.43-.25v-2.57a1,1,0,0,1,.43-.76l19.14-11C292.81,121.89,293,122,293,122.28Z"/><path class="cls-52" d="M359.52,203.52,319,227.09a9.91,9.91,0,0,1-8.94,0L269.2,203.52a3.17,3.17,0,0,1-1.86-2.61V203a3.17,3.17,0,0,0,1.86,2.61L310,229.22a9.89,9.89,0,0,0,8.93,0l40.56-23.57a3.13,3.13,0,0,0,1.83-2.57V201A3.17,3.17,0,0,1,359.52,203.52Z"/><path class="cls-53" d="M359.75,198.29c2.48,1.43,2.49,3.76,0,5.19L319.1,227.12a9.89,9.89,0,0,1-9,0L269.2,203.48c-2.48-1.43-2.49-3.76,0-5.19l40.68-23.64a9.89,9.89,0,0,1,9,0Z"/><path class="cls-5" d="M276.37,195.14,265.72,199c-2.87,1-4.07,2.43-3.7,3.81a1.55,1.55,0,0,1-.06-.23l.37,2.66a2.54,2.54,0,0,0,.66,1.29l-3.63,1.3.93-.28c-3.36.87-5.41,3-5.23,6.19.31,5.66,7.68,12.34,16.47,14.92,4.38,1.29,8.29,1.31,11.06.3h0l36.2-13,7-2.51.15-.06a5.91,5.91,0,0,0,4-4.26,5.84,5.84,0,0,0,.11-1.58,5,5,0,0,0-.09-.77,11.51,11.51,0,0,0-2.38-5.07,25.36,25.36,0,0,0-8-6.58c-.64-.36-1.32-.69-2-1a29.84,29.84,0,0,0-3.59-1.37l-.44-.14c-.87-.26-1.74-.46-2.57-.62-.61-.12-1.21-.2-1.79-.27-.34,0-.69-.06-1-.09a14.33,14.33,0,0,0-5.64.67l-6.8,2.44C289.75,193.21,281.38,193.33,276.37,195.14Z"/><path class="cls-54" d="M337.85,170l-4-1.8a3.75,3.75,0,0,1,2.12,3.64l0,11.56c0,3.23-2.61,7.09-6,9.15v3.89l4,1.81,0-3.81c3.42-2,6-5.89,6-9.11l0-11.69A3.75,3.75,0,0,0,337.85,170Z"/><path class="cls-55" d="M341.33,165.94,337.12,164c-2-.92-4.78-.83-7.82.45l4.21,1.92C336.55,165.1,339.31,165,341.33,165.94Z"/><polygon class="cls-56" points="333.02 169.78 329 167.96 328.99 164.6 333 166.43 333.02 169.78"/><path class="cls-57" d="M333,166.29c6.62-2.8,12-.29,12,5.72l0,10.94c0,5.56-4.92,12.37-11,15.32l0-3.81c3.42-2,6-5.89,6-9.11L340,174c0-3.69-3-5.39-6.95-4.19Z"/><path class="cls-56" d="M335,159.74l-.1,45.09a7.17,7.17,0,0,1-2.08,4.81c-.22.23-.45.47-.7.69a12.65,12.65,0,0,1-1.39,1.14,20,20,0,0,1-2.35,1.42l-.45.22a27,27,0,0,1-4.05,1.57c-.85.25-1.73.48-2.62.67a42.85,42.85,0,0,1-14.4.54,34,34,0,0,1-9-2.43c-.41-.18-.82-.37-1.21-.57a20,20,0,0,1-2.35-1.41c-2.79-1.95-4.22-4.29-4.27-6.6v-.17l1-7.27.07-37.8c0,2.3,1.37,4.59,4.09,6.54a18.66,18.66,0,0,0,2.39,1.44c.36.19.72.36,1.09.53a33,33,0,0,0,8.84,2.39,40.92,40.92,0,0,0,16.48-1.1,27.45,27.45,0,0,0,3.48-1.26l.64-.29.54-.27a18.26,18.26,0,0,0,2.2-1.31,13,13,0,0,0,1.36-1.09,8.8,8.8,0,0,0,.69-.67A7.12,7.12,0,0,0,335,159.74Z"/><path class="cls-58" d="M328.22,151.54c8.74,4.45,8.79,11.67.11,16.12s-22.8,4.45-31.53,0S288,156,296.7,151.54,319.49,147.08,328.22,151.54Z"/><path class="cls-59" d="M332.94,159.63a5.32,5.32,0,0,1-1.06,3,12.76,12.76,0,0,1-4.33,3.61,34.74,34.74,0,0,1-30,0,13,13,0,0,1-4.42-3.68,5.16,5.16,0,0,1-1.07-3c0-2.31,2-4.72,5.39-6.61a34.74,34.74,0,0,1,30,0C330.94,154.87,332.94,157.3,332.94,159.63Z"/><path class="cls-60" d="M323.6,169.5l-2.44,45.82a42.72,42.72,0,0,1-14.29.53,33.21,33.21,0,0,1-9-2.41q-.61-.27-1.2-.57a17.73,17.73,0,0,1-2.33-1.4c-2.77-1.94-4.19-4.25-4.36-6.55l1-7.48V159.56c-.79,2.32.6,4.65,3.36,6.64a20.39,20.39,0,0,0,2.42,1.46c.37.18.73.36,1.11.53a33.48,33.48,0,0,0,9,2.43A41.59,41.59,0,0,0,323.6,169.5Z"/><path class="cls-61" d="M331.88,162.63a12.81,12.81,0,0,1-4.34,3.61,31.49,31.49,0,0,1-15,3.4,31.88,31.88,0,0,1-15-3.4,12.89,12.89,0,0,1-4.4-3.68,12.64,12.64,0,0,1,4.31-3.6,24.34,24.34,0,0,1,4.14-1.78,35.1,35.1,0,0,1,10.83-1.62,31.78,31.78,0,0,1,15,3.4,15.69,15.69,0,0,1,3.16,2.23A9.24,9.24,0,0,1,331.88,162.63Z"/><path class="cls-62" d="M331.88,162.63a12.81,12.81,0,0,1-4.34,3.61,31.49,31.49,0,0,1-15,3.4,31.88,31.88,0,0,1-15-3.4,12.89,12.89,0,0,1-4.4-3.68,12.64,12.64,0,0,1,4.31-3.6,24.34,24.34,0,0,1,4.14-1.78c.31,2.07.19,3.66,2.28,5.2s5.21,1.69,7.77,1.64A67.92,67.92,0,0,0,326,162.28c1.53-.35,3.07-.76,4.61-1.09A9.24,9.24,0,0,1,331.88,162.63Z"/><g class="cls-31"><path class="cls-46" d="M306.72,258.74l-19.81,11.5c.85-.49,1.19-1.83.64-3.57a1.09,1.09,0,0,0-.05-.17c-2-6.36-10.79-13.71-21.73-21.72q-2.31-1.68-4.73-3.41a21.9,21.9,0,0,0-1.88-1.22c-3.39-2-5.78-1.94-7.45-1l19.81-11.51c1.67-1,4.06-1,7.45,1,.59.34,1.22.75,1.88,1.22,1.49,1.06,2.94,2.11,4.37,3.15,11.11,8.12,20,15.55,22.08,22l.05.17C307.9,256.91,307.57,258.24,306.72,258.74Z"/><path class="cls-63" d="M259.16,240.15c-7.21-4.17-9.86.59-10.84,4.51-.48,2,1,5,3,6.13,5.77,3.31,17.36,10,25.87,14.87L284.7,270c2.25,1.3,3.75-.48,2.85-3.35a.84.84,0,0,1-.05-.17c-2.32-7.26-13.38-15.79-26.46-25.13A21.9,21.9,0,0,0,259.16,240.15Z"/><path class="cls-24" d="M285.22,233c-7.19,1.29-14.15,6.57-19.45,11.77q-2.31-1.68-4.73-3.41a21.9,21.9,0,0,0-1.88-1.22c-3.39-2-5.78-1.94-7.45-1l19.81-11.51c1.67-1,4.06-1,7.45,1,.59.34,1.22.75,1.88,1.22C282.34,230.92,283.79,232,285.22,233Z"/><g class="cls-31"><path class="cls-63" d="M272.52,232.7c-1.67-1-3.13-.95-3.9-.5l-3.4,2c.78-.45,2.23-.46,3.9.5,2.48,1.43,4.49,4.48,4.48,5.59l3.4-2C277,237.18,275,234.13,272.52,232.7Z"/><path class="cls-64" d="M269.12,234.67c2.48,1.43,4.49,4.48,4.48,5.59l-9-5.18C264.63,234,266.64,233.24,269.12,234.67Z"/></g></g></symbol></defs><title>img_about_us</title><g id="Layer_2" data-name="Layer 2"><g id="Layer_1-2" data-name="Layer 1"><use id="about-3" data-name="about" width="361.62" height="400" transform="scale(1.22)" xlink:href="#about"/></g></g></svg>