<svg xmlns="http://www.w3.org/2000/svg" xmlns:xlink="http://www.w3.org/1999/xlink" viewBox="0 0 97.73 107.9"><defs><style>.cls-1{fill:#5ea646;}.cls-1,.cls-2{fill-rule:evenodd;}.cls-2{fill:#c4d02e;}</style><symbol id="teamlogo2" data-name="teamlogo2" viewBox="0 0 97.73 107.9"><path class="cls-1" d="M20.24,57.9l-2.91-2.83s-3.55-21.35,19.2-36.41S75.88,10,81.92,18.15s3.18-.42,3.18-.42l-5.94-6.55L68.68,4.67,64.37,3,60.9,1.69,56.1.63S36.13-4,16.76,12.14-.42,48,.69,51.16s14.74,8.68,14.74,8.68Z"/><path class="cls-2" d="M55.92.6S77.13,3.78,80.81,26.73,55.35,63.51,43.41,67.82A110.32,110.32,0,0,1,21.58,73.3s7.84,6.41,11.79,8.61a29.14,29.14,0,0,0,5.48,2.61s26.89-4.65,47-22.79,10.6-37.6,1.64-46.26S67.94,2.2,55.92.6Z"/><path class="cls-1" d="M58,107.9s-2.51,0-8.6-3.28a24.63,24.63,0,0,1-9-8.15s-8.87-32.84-5.69-49.23,10.52-19,10.52-19,4.13-1,6.64.23,3.69,2.41,4,4-5.64,20.45-5.64,20.45S48.91,81.94,58,107.9Z"/><path class="cls-2" d="M45.26,28.2s5.33-1.12,6.36,4S39,50.13,22.41,54.13s-21.72-3-21.72-3,6.25,12,20.19,13.93,36.58-7.17,43.55-17.42S56.23,23.9,45.26,28.2Z"/></symbol></defs><title>img_team2</title><g id="Layer_2" data-name="Layer 2"><g id="Layer_1-2" data-name="Layer 1"><use width="97.73" height="107.9" xlink:href="#teamlogo2"/></g></g></svg>