<svg xmlns="http://www.w3.org/2000/svg" xmlns:xlink="http://www.w3.org/1999/xlink" viewBox="0 0 117.12 107.9"><defs><style>.cls-1{fill:url(#linear-gradient);}.cls-11,.cls-13,.cls-15,.cls-2,.cls-5,.cls-7,.cls-9{opacity:0.5;mix-blend-mode:soft-light;}.cls-2{fill:url(#linear-gradient-2);}.cls-3{opacity:0.8;mix-blend-mode:multiply;}.cls-4{fill:url(#linear-gradient-3);}.cls-5{fill:url(#linear-gradient-4);}.cls-6{fill:url(#linear-gradient-5);}.cls-7{fill:url(#linear-gradient-6);}.cls-8{fill:url(#linear-gradient-7);}.cls-9{fill:url(#linear-gradient-8);}.cls-10{fill:url(#linear-gradient-9);}.cls-11{fill:url(#linear-gradient-10);}.cls-12{fill:url(#linear-gradient-11);}.cls-13{fill:url(#linear-gradient-12);}.cls-14{fill:url(#linear-gradient-13);}.cls-15{fill:url(#linear-gradient-14);}.cls-16{fill:#fff;}</style><linearGradient id="linear-gradient" x1="-3367.94" y1="8096.33" x2="-3332.89" y2="8198.42" gradientTransform="translate(8219.36 -3344.27) rotate(45)" gradientUnits="userSpaceOnUse"><stop offset="0" stop-color="#ffd973"/><stop offset="0.31" stop-color="#ff8273"/><stop offset="0.78" stop-color="#870073"/><stop offset="0.97" stop-color="#8a0073"/><stop offset="1" stop-color="#8b0073"/></linearGradient><linearGradient id="linear-gradient-2" x1="-3386.6" y1="8140.37" x2="-3345.13" y2="8141.39" xlink:href="#linear-gradient"/><linearGradient id="linear-gradient-3" x1="-1787.03" y1="2354.85" x2="-1751.99" y2="2456.94" gradientTransform="translate(2409.1 -1826.42) rotate(15)" gradientUnits="userSpaceOnUse"><stop offset="0" stop-color="#a0ffff"/><stop offset="0.31" stop-color="#23c0ff"/><stop offset="0.78" stop-color="#2300ff"/><stop offset="0.97" stop-color="#2300ff"/><stop offset="1" stop-color="#2300ff"/></linearGradient><linearGradient id="linear-gradient-4" x1="-1805.69" y1="2398.88" x2="-1764.24" y2="2399.9" xlink:href="#linear-gradient-3"/><linearGradient id="linear-gradient-5" x1="2452.97" y1="-1827.05" x2="2488.02" y2="-1724.96" gradientTransform="translate(-1863.8 2393.19) rotate(-15)" gradientUnits="userSpaceOnUse"><stop offset="0" stop-color="#23ffff"/><stop offset="0.31" stop-color="#23c0ff"/><stop offset="0.78" stop-color="#2300b7"/><stop offset="0.92" stop-color="#2300ba"/><stop offset="1" stop-color="#2300c1"/></linearGradient><linearGradient id="linear-gradient-6" x1="2434.32" y1="-1783.02" x2="2475.76" y2="-1782" xlink:href="#linear-gradient-5"/><linearGradient id="linear-gradient-7" x1="8215.72" y1="-3328.59" x2="8250.77" y2="-3226.49" gradientTransform="translate(-3454.43 8183.94) rotate(-45)" gradientUnits="userSpaceOnUse"><stop offset="0" stop-color="#ffaeff"/><stop offset="0.31" stop-color="#ff29ff"/><stop offset="0.78" stop-color="#f0f"/><stop offset="0.97" stop-color="#f0f"/><stop offset="1" stop-color="#f0f"/></linearGradient><linearGradient id="linear-gradient-8" x1="8197.06" y1="-3284.55" x2="8238.51" y2="-3283.53" xlink:href="#linear-gradient-7"/><linearGradient id="linear-gradient-9" x1="12157.72" y1="-2834.94" x2="12192.76" y2="-2732.86" gradientTransform="matrix(0.42, -0.91, 0.91, 0.42, -2602.74, 12258.31)" xlink:href="#linear-gradient"/><linearGradient id="linear-gradient-10" x1="12139.04" y1="-2790.91" x2="12180.52" y2="-2789.89" gradientTransform="matrix(0.42, -0.91, 0.91, 0.42, -2602.74, 12258.31)" xlink:href="#linear-gradient"/><linearGradient id="linear-gradient-11" x1="17123.88" y1="650.77" x2="17158.92" y2="752.87" gradientTransform="matrix(-0.09, -1, 1, -0.09, 801.14, 17205.68)" xlink:href="#linear-gradient-3"/><linearGradient id="linear-gradient-12" x1="17105.23" y1="694.82" x2="17146.67" y2="695.83" gradientTransform="matrix(-0.09, -1, 1, -0.09, 801.14, 17205.68)" xlink:href="#linear-gradient-3"/><linearGradient id="linear-gradient-13" x1="19681.82" y1="6153.06" x2="19716.87" y2="6255.15" gradientTransform="translate(6222.67 19788.29) rotate(-124.89)" xlink:href="#linear-gradient-5"/><linearGradient id="linear-gradient-14" x1="19663.17" y1="6197.09" x2="19704.6" y2="6198.11" gradientTransform="translate(6222.67 19788.29) rotate(-124.89)" xlink:href="#linear-gradient-5"/><symbol id="teamlogo3" data-name="teamlogo3" viewBox="0 0 117.12 107.9"><path class="cls-1" d="M79.1,28.76A40.76,40.76,0,0,0,68,65.93a40.8,40.8,0,0,0,48.26-48.27A40.8,40.8,0,0,0,79.1,28.76Z"/><path class="cls-2" d="M115.83,17.6A40.74,40.74,0,0,0,68,65.49Z"/><g class="cls-3"><path class="cls-4" d="M59,28.19a40.82,40.82,0,0,0,9,37.74A40.8,40.8,0,0,0,85.67,0,40.77,40.77,0,0,0,59,28.19Z"/><path class="cls-5" d="M85.26.16A40.74,40.74,0,0,0,67.74,65.57Z"/></g><path class="cls-6" d="M41.37,37.74A40.79,40.79,0,0,0,68,65.93,40.81,40.81,0,0,0,50.34,0,40.78,40.78,0,0,0,41.37,37.74Z"/><path class="cls-7" d="M50.07.34A40.75,40.75,0,0,0,67.59,65.76Z"/><g class="cls-3"><path class="cls-8" d="M30.84,54.84A40.83,40.83,0,0,0,68,65.93,40.81,40.81,0,0,0,19.74,17.66,40.83,40.83,0,0,0,30.84,54.84Z"/><path class="cls-9" d="M19.68,18.11A40.74,40.74,0,0,0,67.57,66Z"/></g><path class="cls-10" d="M29.27,68.14A40.81,40.81,0,0,0,68,65.93,40.79,40.79,0,0,0,6.21,37,40.75,40.75,0,0,0,29.27,68.14Z"/><path class="cls-11" d="M6.3,37.41A40.72,40.72,0,0,0,67.62,66.12Z"/><g class="cls-3"><path class="cls-12" d="M35.57,87.2A40.79,40.79,0,0,0,68,65.93,40.81,40.81,0,0,0,0,71.75,40.8,40.8,0,0,0,35.57,87.2Z"/><path class="cls-13" d="M.31,72.08A40.74,40.74,0,0,0,67.77,66.3Z"/></g><path class="cls-14" d="M50.56,100.58A40.78,40.78,0,0,0,68,65.93a40.8,40.8,0,0,0-56,39A40.85,40.85,0,0,0,50.56,100.58Z"/><path class="cls-15" d="M12.44,105.11A40.75,40.75,0,0,0,68,66.38Z"/><circle class="cls-16" cx="68.01" cy="70.6" r="36.34" transform="translate(-10.43 11.81) rotate(-9.22)"/></symbol></defs><title>img_team3</title><g id="Layer_2" data-name="Layer 2"><g id="Layer_1-2" data-name="Layer 1"><use width="117.12" height="107.9" xlink:href="#teamlogo3"/></g></g></svg>