<svg xmlns="http://www.w3.org/2000/svg" viewBox="0 0 155.59 18"><defs><style>.cls-1{fill:#fff;}</style></defs><title>logo_type_light</title><g id="Layer_2" data-name="Layer 2"><g id="Layer_1-2" data-name="Layer 1"><path class="cls-1" d="M29.14,18a5.15,5.15,0,1,1,5.15-5.14A5.15,5.15,0,0,1,29.14,18Zm0-8.57a3.43,3.43,0,1,0,3.43,3.43A3.44,3.44,0,0,0,29.14,9.43Z"/><path class="cls-1" d="M43.71,18a5.08,5.08,0,0,1-3.63-1.51,5.14,5.14,0,0,1,7.27-7.27l-1.21,1.21a3.45,3.45,0,0,0-4.85,0,3.43,3.43,0,0,0,4.85,4.85l1.21,1.21A5.1,5.1,0,0,1,43.71,18Z"/><path class="cls-1" d="M66.81,18a5.14,5.14,0,1,1,3.64-8.78l-1.22,1.21a3.43,3.43,0,1,0,0,4.85l1.22,1.21A5.12,5.12,0,0,1,66.81,18Z"/><path class="cls-1" d="M5.14,18a5.15,5.15,0,1,1,5.15-5.14A5.15,5.15,0,0,1,5.14,18Zm0-8.57a3.43,3.43,0,1,0,3.43,3.43A3.44,3.44,0,0,0,5.14,9.43Z"/><rect class="cls-1" width="1.71" height="12.86"/><path class="cls-1" d="M126.07,18a5.15,5.15,0,1,1,5.14-5.14A5.14,5.14,0,0,1,126.07,18Zm0-8.57a3.43,3.43,0,1,0,3.43,3.43A3.44,3.44,0,0,0,126.07,9.43Z"/><rect class="cls-1" x="129.5" y="12.86" width="1.71" height="5.14"/><path class="cls-1" d="M19.71,18a5.15,5.15,0,0,1-5.14-5.14h1.72a3.43,3.43,0,0,0,3.42,3.43Z"/><rect class="cls-1" x="14.57" width="1.71" height="12.86"/><path class="cls-1" d="M93.54,18a5.15,5.15,0,0,1-5.14-5.14h1.71a3.44,3.44,0,0,0,3.43,3.43Z"/><rect class="cls-1" x="88.4" width="1.71" height="12.86"/><path class="cls-1" d="M141.93,18a5.15,5.15,0,0,1-5.15-5.14h1.72a3.44,3.44,0,0,0,3.43,3.43Z"/><rect class="cls-1" x="136.78" width="1.71" height="12.86"/><rect class="cls-1" x="135.5" y="3.43" width="4.29" height="1.71"/><path class="cls-1" d="M113.21,12.86H111.5a5.15,5.15,0,0,1,5.14-5.15V9.43A3.44,3.44,0,0,0,113.21,12.86Z"/><rect class="cls-1" x="111.5" y="12.86" width="1.71" height="5.14"/><path class="cls-1" d="M56.78,18a5.15,5.15,0,0,1-5.15-5.14h1.72a3.44,3.44,0,0,0,3.43,3.43Z"/><rect class="cls-1" x="51.63" width="1.71" height="12.86"/><rect class="cls-1" x="51.6" y="9.86" width="6.06" height="1.71" transform="translate(8.43 41.77) rotate(-45)"/><path class="cls-1" d="M79.87,18a5.08,5.08,0,0,1-3.63-1.51,5.14,5.14,0,0,1,7.27-7.27l.6.61-6,6a3.43,3.43,0,0,0,4.17-.53l1.21,1.21A5.1,5.1,0,0,1,79.87,18Zm0-8.57a3.42,3.42,0,0,0-3,5.17l4.69-4.7A3.44,3.44,0,0,0,79.87,9.43Z"/><path class="cls-1" d="M103,18a5.14,5.14,0,1,1,3.64-8.78l.6.61-6,6a3.41,3.41,0,0,0,4.16-.53l1.22,1.21A5.12,5.12,0,0,1,103,18Zm0-8.57a3.41,3.41,0,0,0-3.43,3.43A3.49,3.49,0,0,0,100,14.6l4.7-4.7A3.47,3.47,0,0,0,103,9.43Z"/><path class="cls-1" d="M151.35,18A5.14,5.14,0,1,1,155,9.22l.6.61-6,6a3.43,3.43,0,0,0,4.17-.53L155,16.49A5.1,5.1,0,0,1,151.35,18Zm0-8.57a3.42,3.42,0,0,0-2.95,5.17l4.69-4.7A3.44,3.44,0,0,0,151.35,9.43Z"/></g></g></svg>