<svg xmlns="http://www.w3.org/2000/svg" viewBox="0 0 27.9 36"><defs><style>.cls-1{fill:#fff;}.cls-2{fill:#5673f6;opacity:0.5;}</style></defs><title>logo_light</title><g id="Layer_2" data-name="Layer 2"><g id="Layer_1-2" data-name="Layer 1"><path class="cls-1" d="M27.88,8.55a9.17,9.17,0,0,0-9-8.55A9,9,0,0,0,11,4.57L1.45,21.12a2,2,0,0,0,3.14,2.4l7.84-7.84a3.91,3.91,0,0,1-.26-.59l0,0-2.29.55L13,10.5h2c.17-.19.34-.38.52-.55,2.5-2.51,5.68-2.19,5.9-2s.53,3.39-2,5.89c-.18.18-.36.36-.55.53v2l-5.12,3.17.54-2.29v0a3.51,3.51,0,0,1-.59-.26L1.11,29.6A3.75,3.75,0,0,0,3.76,36h9.59A12.2,12.2,0,0,0,25.6,25.05a11.93,11.93,0,0,0-2.33-8.19A9,9,0,0,0,27.88,8.55Z"/><path class="cls-1" d="M19.57,10.92a.77.77,0,1,0-1.09,0A.76.76,0,0,0,19.57,10.92Z"/><path class="cls-2" d="M27.88,8.55a8.56,8.56,0,0,0-.83-3.32,8,8,0,0,0-.56-1,9.69,9.69,0,0,0-.73-1,9.56,9.56,0,0,0-1.21-1.17l-.39-.29a9.43,9.43,0,0,0-1.8-1L22.1.67A9.29,9.29,0,0,0,18.89,0a8.75,8.75,0,0,0-6.42,2.65l-.12.14a8.21,8.21,0,0,0-.67.77,8.84,8.84,0,0,0-.67,1h0L3.15,19.34a1.57,1.57,0,0,0,2.37,1.95l6.91-5.61a3.91,3.91,0,0,1-.26-.59l0,0-2.29.55L13,10.5h2c.17-.19.34-.38.52-.55,2.5-2.51,5.68-2.19,5.9-2s.53,3.39-2,5.89c-.18.18-.36.36-.55.53v2l-5.12,3.17.54-2.29v0a3.51,3.51,0,0,1-.59-.26l-.19.2A77.24,77.24,0,0,0,5.62,27.37,6,6,0,0,0,8,36h5.38A12.2,12.2,0,0,0,25.6,25.05a11.93,11.93,0,0,0-2.33-8.19A9,9,0,0,0,27.88,8.55Z"/><path class="cls-1" d="M27.88,8.55a8.2,8.2,0,0,0-.25-1.73,9.41,9.41,0,0,0-.58-1.59,8,8,0,0,0-.56-1,9.69,9.69,0,0,0-.73-1h0c-.18-.21-.38-.41-.58-.61h0a6.64,6.64,0,0,0-.63-.56l-.39-.29a9.87,9.87,0,0,0-.83-.54l-.07,0a9.44,9.44,0,0,0-.9-.45L22.1.67A9.24,9.24,0,0,0,20.55.2l-.14,0c-.22,0-.45-.08-.67-.1A7.9,7.9,0,0,0,18.89,0c-.27,0-.54,0-.8,0h-.2a8,8,0,0,0-1.56.3L16.14.4A8.4,8.4,0,0,0,14.69,1l-.18.09a9.35,9.35,0,0,0-1.3.89l-.15.12c-.21.18-.4.35-.59.54h0l0,.05-.08.09a8.21,8.21,0,0,0-.67.77h0a8.84,8.84,0,0,0-.67,1h0L4.78,17.71a1.36,1.36,0,0,0,2,1.72l5.67-3.75a3.91,3.91,0,0,1-.26-.59l0,0-2.29.55L13,10.5h2c.17-.19.34-.38.52-.55,2.5-2.51,5.68-2.19,5.9-2s.53,3.39-2,5.89c-.18.18-.36.36-.55.53v2l-5.12,3.17.54-2.29v0a3.51,3.51,0,0,1-.59-.26,79.67,79.67,0,0,0-4.47,6.9l-.13.23a7.92,7.92,0,0,0,5.66,11.8A12.14,12.14,0,0,0,25.6,25.05a11.93,11.93,0,0,0-2.33-8.19A9,9,0,0,0,27.88,8.55Z"/></g></g></svg>