<svg xmlns="http://www.w3.org/2000/svg" viewBox="0 0 18 15.23"><title>ic_medium</title><g id="9ff868d4-a366-4a8c-af73-60904c87aa91" data-name="Layer 2"><g id="2e1463fc-cf88-4c2c-b6e3-332ee10845f4" data-name="Layer 1"><path d="M6.64,9.88,12,12.56,6.64,3.86ZM.83.22A1,1,0,0,0,.39.07C.12.07,0,.3,0,.55V12a1,1,0,0,0,.5.81l4.67,2.34a.73.73,0,0,0,.33.08c.35,0,.5-.29.5-.61V2.84l0,0Zm17.1,2.55L12.5.06A.63.63,0,0,0,12.23,0a.6.6,0,0,0-.52.28L8.46,5.57l3.92,6.37C12.78,11.3,18,2.87,18,2.83A.07.07,0,0,0,17.93,2.77ZM12.58,12.85,17,15.06a1,1,0,0,0,.47.13.51.51,0,0,0,.52-.57V4Z" fill="#fff"/></g></g></svg>